<svg width="496" height="64" viewBox="0 0 496 64" fill="none" xmlns="http://www.w3.org/2000/svg">
<path d="M5.56592 10.0644C5.56592 9.68111 5.81115 9.34085 6.17474 9.21964L32.6647 0.388477C33.2394 0.196906 33.8334 0.622589 33.8368 1.22831L34.0562 41.1302C34.0584 41.5161 33.8117 41.8594 33.4454 41.9805L6.73592 50.8131C6.15973 51.0036 5.56592 50.5745 5.56592 49.9676V10.0644Z" fill="white"/>
<path d="M5.56592 10.9906C5.56592 10.6085 5.80967 10.269 6.17169 10.1469L31.7784 1.50725C32.3536 1.31316 32.9502 1.73902 32.9535 2.34611L33.1659 41.4284C33.168 41.813 32.9228 42.1555 32.5581 42.2776L6.73896 50.9187C6.16217 51.1117 5.56592 50.6825 5.56592 50.0743V10.9906Z" fill="#FFCA08"/>
<path d="M0 17.451C0 17.0682 0.244698 16.7282 0.607719 16.6067L27.0977 7.7371C27.6726 7.54462 28.2675 7.97037 28.2708 8.57658L28.4903 48.6593C28.4925 49.0447 28.2464 49.3878 27.8806 49.5092L1.1711 58.3802C0.59469 58.5716 0 58.1425 0 57.5351V17.451Z" fill="white"/>
<path d="M0 18.5597C0 18.1776 0.243747 17.8381 0.605769 17.716L26.2125 9.07634C26.7877 8.88225 27.3843 9.30811 27.3876 9.91521L27.6 48.9974C27.602 49.3821 27.3569 49.7246 26.9921 49.8467L1.17304 58.4878C0.596257 58.6808 0 58.2516 0 57.6434V18.5597Z" fill="#F21654"/>
<path d="M10.6853 22.753C10.6853 22.3697 10.9305 22.0295 11.2941 21.9082L37.7841 13.0771C38.3588 12.8855 38.9528 13.3112 38.9562 13.9169L39.1756 53.8188C39.1778 54.2047 38.9311 54.548 38.5648 54.6691L11.8553 63.5017C11.2791 63.6922 10.6853 63.2631 10.6853 62.6562V22.753Z" fill="white"/>
<path d="M10.6855 23.6792C10.6855 23.2971 10.9293 22.9576 11.2913 22.8355L36.898 14.1958C37.4733 14.0018 38.0698 14.4276 38.0731 15.0347L38.2855 54.117C38.2876 54.5016 38.0424 54.8441 37.6777 54.9662L11.8586 63.6073C11.2818 63.8003 10.6855 63.3711 10.6855 62.7629V23.6792Z" fill="#7ECC3B"/>
<path d="M58.8751 21.6211H54.9146C54.8865 21.2934 54.8116 20.9961 54.6899 20.7293C54.5728 20.4624 54.409 20.233 54.1983 20.0411C53.9923 19.8445 53.7419 19.6947 53.4469 19.5917C53.152 19.484 52.8173 19.4302 52.4428 19.4302C51.7874 19.4302 51.2326 19.5893 50.7785 19.9077C50.3291 20.226 49.9873 20.6825 49.7533 21.277C49.5239 21.8716 49.4092 22.5855 49.4092 23.4188C49.4092 24.2989 49.5262 25.0362 49.7603 25.6308C49.999 26.2206 50.3431 26.6654 50.7925 26.965C51.242 27.2599 51.7827 27.4074 52.4147 27.4074C52.7751 27.4074 53.0982 27.3629 53.3837 27.274C53.6693 27.1803 53.9174 27.0469 54.1281 26.8737C54.3387 26.7005 54.5096 26.4922 54.6407 26.2487C54.7765 26.0006 54.8678 25.7221 54.9146 25.4131L58.8751 25.4412C58.8283 26.0498 58.6574 26.67 58.3625 27.302C58.0675 27.9294 57.6485 28.5099 57.1055 29.0435C56.5671 29.5726 55.9 29.9986 55.1042 30.3216C54.3083 30.6446 53.3837 30.8061 52.3304 30.8061C51.0102 30.8061 49.8258 30.5229 48.7772 29.9564C47.7332 29.39 46.9069 28.5567 46.2983 27.4565C45.6944 26.3564 45.3925 25.0105 45.3925 23.4188C45.3925 21.8177 45.7015 20.4695 46.3194 19.374C46.9374 18.2739 47.7707 17.4429 48.8193 16.8811C49.868 16.3147 51.0383 16.0314 52.3304 16.0314C53.2386 16.0314 54.0742 16.1555 54.8373 16.4036C55.6004 16.6517 56.2698 17.0145 56.8457 17.4921C57.4215 17.9649 57.885 18.5477 58.2361 19.2406C58.5872 19.9334 58.8002 20.7269 58.8751 21.6211ZM60.6464 16.2281H65.5058L68.8483 24.3738H69.0169L72.3594 16.2281H77.2188V30.6095H73.3987V22.2952H73.2864L70.0842 30.4971H67.781L64.5789 22.239H64.4665V30.6095H60.6464V16.2281ZM82.9735 16.2281V30.6095H79.0691V16.2281H82.9735ZM92.5763 20.7223C92.5389 20.2541 92.3633 19.889 92.0496 19.6268C91.7407 19.3646 91.2702 19.2336 90.6382 19.2336C90.2356 19.2336 89.9055 19.2827 89.6481 19.381C89.3953 19.4746 89.208 19.6034 89.0863 19.7672C88.9646 19.9311 88.9014 20.1183 88.8967 20.329C88.8873 20.5022 88.9178 20.6591 88.988 20.7995C89.0629 20.9353 89.1799 21.0593 89.3391 21.1717C89.4983 21.2794 89.7019 21.3777 89.95 21.4666C90.1981 21.5556 90.4931 21.6351 90.8348 21.7054L92.0145 21.9582C92.8104 22.1267 93.4915 22.3491 94.058 22.6253C94.6245 22.9015 95.0879 23.2268 95.4484 23.6014C95.8089 23.9712 96.0734 24.3878 96.2419 24.8513C96.4151 25.3148 96.5041 25.8204 96.5087 26.3681C96.5041 27.3138 96.2676 28.1143 95.7995 28.7697C95.3314 29.4251 94.6619 29.9237 93.7912 30.2654C92.9251 30.6072 91.8835 30.778 90.6663 30.778C89.4163 30.778 88.3255 30.5931 87.3939 30.2233C86.467 29.8534 85.7461 29.2846 85.2311 28.5169C84.7208 27.7444 84.4633 26.7567 84.4587 25.5535H88.1664C88.1898 25.9936 88.2998 26.3634 88.4964 26.663C88.693 26.9626 88.9692 27.1897 89.325 27.3442C89.6855 27.4987 90.1139 27.5759 90.6101 27.5759C91.0267 27.5759 91.3755 27.5244 91.6564 27.4214C91.9373 27.3184 92.1503 27.1756 92.2954 26.9931C92.4405 26.8105 92.5155 26.6022 92.5201 26.3681C92.5155 26.1481 92.4429 25.9561 92.3024 25.7923C92.1667 25.6237 91.942 25.4739 91.6283 25.3429C91.3147 25.2071 90.891 25.0807 90.3573 24.9637L88.9248 24.6547C87.6514 24.3785 86.6472 23.9174 85.9123 23.2713C85.1819 22.6206 84.8191 21.7335 84.8238 20.6099C84.8191 19.697 85.0626 18.8988 85.5541 18.2153C86.0504 17.5272 86.7362 16.9911 87.6116 16.6073C88.4917 16.2234 89.5006 16.0314 90.6382 16.0314C91.7992 16.0314 92.8034 16.2257 93.6507 16.6143C94.4981 17.0028 95.1511 17.5506 95.6099 18.2575C96.0734 18.9597 96.3074 19.7813 96.3121 20.7223H92.5763Z" fill="#404040"/>
<path d="M53.0996 43.6387H51.2069C51.1723 43.3938 51.1017 43.1763 50.9951 42.9861C50.8885 42.7931 50.7517 42.6289 50.5846 42.4935C50.4175 42.3581 50.2245 42.2544 50.0055 42.1824C49.7894 42.1104 49.5547 42.0743 49.3011 42.0743C48.8431 42.0743 48.4441 42.1881 48.1041 42.4157C47.7642 42.6404 47.5006 42.9689 47.3133 43.401C47.1261 43.8302 47.0324 44.3517 47.0324 44.9653C47.0324 45.5962 47.1261 46.1263 47.3133 46.5556C47.5035 46.9848 47.7685 47.3089 48.1084 47.5279C48.4484 47.7468 48.8416 47.8563 49.2882 47.8563C49.5388 47.8563 49.7707 47.8232 49.9839 47.7569C50.2 47.6907 50.3916 47.5941 50.5586 47.4674C50.7257 47.3377 50.864 47.1807 50.9735 46.9964C51.0859 46.812 51.1636 46.6017 51.2069 46.3654L53.0996 46.3741C53.0506 46.7803 52.9282 47.1721 52.7323 47.5495C52.5393 47.924 52.2785 48.2596 51.9501 48.5564C51.6246 48.8502 51.2357 49.0836 50.7834 49.2564C50.3339 49.4264 49.8255 49.5114 49.2579 49.5114C48.4686 49.5114 47.7627 49.3328 47.1405 48.9755C46.5211 48.6183 46.0313 48.1012 45.6712 47.4242C45.314 46.7472 45.1354 45.9275 45.1354 44.9653C45.1354 44.0002 45.3169 43.1792 45.6798 42.5022C46.0428 41.8251 46.5355 41.3095 47.1577 40.9551C47.78 40.5979 48.4801 40.4193 49.2579 40.4193C49.7707 40.4193 50.2461 40.4913 50.684 40.6353C51.1247 40.7794 51.5151 40.9897 51.8551 41.2662C52.195 41.5399 52.4716 41.8756 52.6848 42.2731C52.9008 42.6707 53.0391 43.1259 53.0996 43.6387ZM56.2996 49.5157C55.8761 49.5157 55.4987 49.4422 55.1674 49.2953C54.8361 49.1455 54.5739 48.9251 54.3809 48.6341C54.1907 48.3403 54.0957 47.9744 54.0957 47.5365C54.0957 47.1678 54.1634 46.8581 54.2988 46.6074C54.4342 46.3568 54.6186 46.1551 54.8519 46.0024C55.0853 45.8498 55.3503 45.7345 55.647 45.6567C55.9466 45.579 56.2607 45.5242 56.5891 45.4925C56.9751 45.4522 57.2863 45.4147 57.5225 45.3802C57.7587 45.3427 57.9301 45.288 58.0367 45.216C58.1433 45.1439 58.1966 45.0373 58.1966 44.8962V44.8703C58.1966 44.5966 58.1102 44.3848 57.9373 44.235C57.7674 44.0852 57.5254 44.0103 57.2114 44.0103C56.8801 44.0103 56.6165 44.0838 56.4206 44.2307C56.2247 44.3747 56.095 44.5562 56.0316 44.7752L54.329 44.6369C54.4154 44.2336 54.5854 43.885 54.8389 43.5911C55.0925 43.2944 55.4194 43.0668 55.8199 42.9084C56.2232 42.747 56.6899 42.6664 57.22 42.6664C57.5888 42.6664 57.9417 42.7096 58.2787 42.796C58.6187 42.8824 58.9197 43.0164 59.1819 43.1979C59.4469 43.3794 59.6558 43.6127 59.8085 43.898C59.9612 44.1803 60.0375 44.5188 60.0375 44.9135V49.3904H58.2917V48.4699H58.2398C58.1332 48.6774 57.9906 48.8603 57.812 49.0187C57.6334 49.1743 57.4188 49.2968 57.1681 49.3861C56.9175 49.4725 56.628 49.5157 56.2996 49.5157ZM56.8268 48.2452C57.0976 48.2452 57.3367 48.1919 57.5441 48.0853C57.7515 47.9759 57.9143 47.8289 58.0324 47.6446C58.1505 47.4602 58.2096 47.2513 58.2096 47.018V46.3136C58.152 46.351 58.0727 46.3856 57.9719 46.4173C57.874 46.4461 57.7631 46.4735 57.6392 46.4994C57.5153 46.5224 57.3914 46.5441 57.2675 46.5642C57.1437 46.5815 57.0313 46.5974 56.9305 46.6118C56.7144 46.6434 56.5257 46.6939 56.3644 46.763C56.203 46.8321 56.0777 46.9258 55.9884 47.0439C55.8991 47.1591 55.8545 47.3032 55.8545 47.476C55.8545 47.7267 55.9452 47.9182 56.1267 48.0508C56.3111 48.1804 56.5444 48.2452 56.8268 48.2452ZM63.3066 45.553V49.3904H61.4657V40.5403H63.2548V43.9239H63.3325C63.4824 43.5321 63.7243 43.2253 64.0585 43.0034C64.3927 42.7787 64.8119 42.6664 65.316 42.6664C65.777 42.6664 66.1789 42.7672 66.5217 42.9689C66.8674 43.1676 67.1353 43.4543 67.3255 43.8288C67.5185 44.2004 67.6136 44.6455 67.6107 45.1641V49.3904H65.7698V45.4925C65.7727 45.0834 65.669 44.7651 65.4586 44.5375C65.2512 44.3099 64.9603 44.1961 64.5857 44.1961C64.3351 44.1961 64.1133 44.2494 63.9202 44.356C63.7301 44.4626 63.5803 44.6182 63.4708 44.8227C63.3642 45.0244 63.3095 45.2678 63.3066 45.553ZM70.9522 49.5157C70.5287 49.5157 70.1513 49.4422 69.82 49.2953C69.4887 49.1455 69.2265 48.9251 69.0335 48.6341C68.8433 48.3403 68.7483 47.9744 68.7483 47.5365C68.7483 47.1678 68.816 46.8581 68.9514 46.6074C69.0868 46.3568 69.2712 46.1551 69.5045 46.0024C69.7379 45.8498 70.0029 45.7345 70.2996 45.6567C70.5992 45.579 70.9133 45.5242 71.2417 45.4925C71.6277 45.4522 71.9389 45.4147 72.1751 45.3802C72.4113 45.3427 72.5827 45.288 72.6893 45.216C72.7959 45.1439 72.8492 45.0373 72.8492 44.8962V44.8703C72.8492 44.5966 72.7628 44.3848 72.5899 44.235C72.42 44.0852 72.178 44.0103 71.864 44.0103C71.5327 44.0103 71.2691 44.0838 71.0732 44.2307C70.8773 44.3747 70.7476 44.5562 70.6842 44.7752L68.9816 44.6369C69.0681 44.2336 69.238 43.885 69.4915 43.5911C69.7451 43.2944 70.072 43.0668 70.4725 42.9084C70.8758 42.747 71.3425 42.6664 71.8726 42.6664C72.2414 42.6664 72.5943 42.7096 72.9313 42.796C73.2713 42.8824 73.5723 43.0164 73.8345 43.1979C74.0995 43.3794 74.3084 43.6127 74.4611 43.898C74.6138 44.1803 74.6901 44.5188 74.6901 44.9135V49.3904H72.9443V48.4699H72.8924C72.7859 48.6774 72.6432 48.8603 72.4646 49.0187C72.286 49.1743 72.0714 49.2968 71.8208 49.3861C71.5701 49.4725 71.2806 49.5157 70.9522 49.5157ZM71.4794 48.2452C71.7502 48.2452 71.9893 48.1919 72.1967 48.0853C72.4041 47.9759 72.5669 47.8289 72.685 47.6446C72.8031 47.4602 72.8622 47.2513 72.8622 47.018V46.3136C72.8046 46.351 72.7254 46.3856 72.6245 46.4173C72.5266 46.4461 72.4157 46.4735 72.2918 46.4994C72.1679 46.5224 72.044 46.5441 71.9201 46.5642C71.7963 46.5815 71.6839 46.5974 71.5831 46.6118C71.367 46.6434 71.1783 46.6939 71.017 46.763C70.8556 46.8321 70.7303 46.9258 70.641 47.0439C70.5517 47.1591 70.5071 47.3032 70.5071 47.476C70.5071 47.7267 70.5978 47.9182 70.7793 48.0508C70.9637 48.1804 71.197 48.2452 71.4794 48.2452ZM77.0172 51.8795C76.7838 51.8795 76.5649 51.8608 76.3603 51.8233C76.1587 51.7887 75.9916 51.7441 75.859 51.6893L76.2739 50.3151C76.49 50.3814 76.6844 50.4174 76.8573 50.4232C77.033 50.4289 77.1843 50.3886 77.311 50.3022C77.4407 50.2158 77.5458 50.0688 77.6265 49.8614L77.7345 49.5805L75.3535 42.7528H77.2894L78.6636 47.6273H78.7327L80.1199 42.7528H82.0688L79.489 50.1077C79.3651 50.465 79.1966 50.7761 78.9834 51.0411C78.7731 51.3091 78.5066 51.515 78.1839 51.6591C77.8613 51.806 77.4724 51.8795 77.0172 51.8795ZM84.7254 49.5157C84.3019 49.5157 83.9245 49.4422 83.5932 49.2953C83.2619 49.1455 82.9997 48.9251 82.8067 48.6341C82.6166 48.3403 82.5215 47.9744 82.5215 47.5365C82.5215 47.1678 82.5892 46.8581 82.7246 46.6074C82.86 46.3568 83.0444 46.1551 83.2777 46.0024C83.5111 45.8498 83.7761 45.7345 84.0728 45.6567C84.3725 45.579 84.6865 45.5242 85.0149 45.4925C85.4009 45.4522 85.7121 45.4147 85.9483 45.3802C86.1845 45.3427 86.356 45.288 86.4626 45.216C86.5691 45.1439 86.6224 45.0373 86.6224 44.8962V44.8703C86.6224 44.5966 86.536 44.3848 86.3632 44.235C86.1932 44.0852 85.9512 44.0103 85.6372 44.0103C85.3059 44.0103 85.0423 44.0838 84.8464 44.2307C84.6505 44.3747 84.5208 44.5562 84.4574 44.7752L82.7548 44.6369C82.8413 44.2336 83.0112 43.885 83.2648 43.5911C83.5183 43.2944 83.8453 43.0668 84.2457 42.9084C84.649 42.747 85.1157 42.6664 85.6458 42.6664C86.0146 42.6664 86.3675 42.7096 86.7045 42.796C87.0445 42.8824 87.3455 43.0164 87.6077 43.1979C87.8728 43.3794 88.0816 43.6127 88.2343 43.898C88.387 44.1803 88.4633 44.5188 88.4633 44.9135V49.3904H86.7175V48.4699H86.6657C86.5591 48.6774 86.4165 48.8603 86.2378 49.0187C86.0592 49.1743 85.8446 49.2968 85.594 49.3861C85.3433 49.4725 85.0538 49.5157 84.7254 49.5157ZM85.2526 48.2452C85.5234 48.2452 85.7625 48.1919 85.9699 48.0853C86.1773 47.9759 86.3401 47.8289 86.4582 47.6446C86.5763 47.4602 86.6354 47.2513 86.6354 47.018V46.3136C86.5778 46.351 86.4986 46.3856 86.3977 46.4173C86.2998 46.4461 86.1889 46.4735 86.065 46.4994C85.9411 46.5224 85.8172 46.5441 85.6934 46.5642C85.5695 46.5815 85.4571 46.5974 85.3563 46.6118C85.1402 46.6434 84.9515 46.6939 84.7902 46.763C84.6289 46.8321 84.5035 46.9258 84.4142 47.0439C84.3249 47.1591 84.2803 47.3032 84.2803 47.476C84.2803 47.7267 84.371 47.9182 84.5525 48.0508C84.7369 48.1804 84.9702 48.2452 85.2526 48.2452ZM92.7425 40.5403H95.0501L97.4874 46.4864H97.5911L100.028 40.5403H102.336V49.3904H100.521V43.63H100.448L98.1572 49.3472H96.9213L94.631 43.6084H94.5575V49.3904H92.7425V40.5403ZM105.736 49.5157C105.312 49.5157 104.935 49.4422 104.604 49.2953C104.272 49.1455 104.01 48.9251 103.817 48.6341C103.627 48.3403 103.532 47.9744 103.532 47.5365C103.532 47.1678 103.6 46.8581 103.735 46.6074C103.87 46.3568 104.055 46.1551 104.288 46.0024C104.521 45.8498 104.786 45.7345 105.083 45.6567C105.383 45.579 105.697 45.5242 106.025 45.4925C106.411 45.4522 106.722 45.4147 106.959 45.3802C107.195 45.3427 107.366 45.288 107.473 45.216C107.58 45.1439 107.633 45.0373 107.633 44.8962V44.8703C107.633 44.5966 107.546 44.3848 107.374 44.235C107.204 44.0852 106.962 44.0103 106.648 44.0103C106.316 44.0103 106.053 44.0838 105.857 44.2307C105.661 44.3747 105.531 44.5562 105.468 44.7752L103.765 44.6369C103.852 44.2336 104.022 43.885 104.275 43.5911C104.529 43.2944 104.856 43.0668 105.256 42.9084C105.659 42.747 106.126 42.6664 106.656 42.6664C107.025 42.6664 107.378 42.7096 107.715 42.796C108.055 42.8824 108.356 43.0164 108.618 43.1979C108.883 43.3794 109.092 43.6127 109.245 43.898C109.397 44.1803 109.474 44.5188 109.474 44.9135V49.3904H107.728V48.4699H107.676C107.569 48.6774 107.427 48.8603 107.248 49.0187C107.07 49.1743 106.855 49.2968 106.604 49.3861C106.354 49.4725 106.064 49.5157 105.736 49.5157ZM106.263 48.2452C106.534 48.2452 106.773 48.1919 106.98 48.0853C107.188 47.9759 107.35 47.8289 107.469 47.6446C107.587 47.4602 107.646 47.2513 107.646 47.018V46.3136C107.588 46.351 107.509 46.3856 107.408 46.4173C107.31 46.4461 107.199 46.4735 107.075 46.4994C106.951 46.5224 106.828 46.5441 106.704 46.5642C106.58 46.5815 106.468 46.5974 106.367 46.6118C106.151 46.6434 105.962 46.6939 105.801 46.763C105.639 46.8321 105.514 46.9258 105.425 47.0439C105.335 47.1591 105.291 47.3032 105.291 47.476C105.291 47.7267 105.381 47.9182 105.563 48.0508C105.747 48.1804 105.981 48.2452 106.263 48.2452ZM112.743 45.553V49.3904H110.902V42.7528H112.656V43.9239H112.734C112.881 43.5378 113.127 43.2325 113.473 43.0078C113.819 42.7802 114.238 42.6664 114.731 42.6664C115.192 42.6664 115.593 42.7672 115.936 42.9689C116.279 43.1705 116.546 43.4586 116.736 43.8331C116.926 44.2048 117.021 44.6484 117.021 45.1641V49.3904H115.18V45.4925C115.183 45.0863 115.079 44.7694 114.869 44.5418C114.659 44.3114 114.369 44.1961 114 44.1961C113.753 44.1961 113.534 44.2494 113.343 44.356C113.156 44.4626 113.009 44.6182 112.903 44.8227C112.799 45.0244 112.746 45.2678 112.743 45.553ZM120.365 49.5157C119.941 49.5157 119.564 49.4422 119.232 49.2953C118.901 49.1455 118.639 48.9251 118.446 48.6341C118.256 48.3403 118.161 47.9744 118.161 47.5365C118.161 47.1678 118.228 46.8581 118.364 46.6074C118.499 46.3568 118.684 46.1551 118.917 46.0024C119.15 45.8498 119.415 45.7345 119.712 45.6567C120.012 45.579 120.326 45.5242 120.654 45.4925C121.04 45.4522 121.351 45.4147 121.588 45.3802C121.824 45.3427 121.995 45.288 122.102 45.216C122.208 45.1439 122.262 45.0373 122.262 44.8962V44.8703C122.262 44.5966 122.175 44.3848 122.002 44.235C121.832 44.0852 121.59 44.0103 121.276 44.0103C120.945 44.0103 120.681 44.0838 120.486 44.2307C120.29 44.3747 120.16 44.5562 120.097 44.7752L118.394 44.6369C118.48 44.2336 118.65 43.885 118.904 43.5911C119.157 43.2944 119.484 43.0668 119.885 42.9084C120.288 42.747 120.755 42.6664 121.285 42.6664C121.654 42.6664 122.007 42.7096 122.344 42.796C122.684 42.8824 122.985 43.0164 123.247 43.1979C123.512 43.3794 123.721 43.6127 123.874 43.898C124.026 44.1803 124.103 44.5188 124.103 44.9135V49.3904H122.357V48.4699H122.305C122.198 48.6774 122.056 48.8603 121.877 49.0187C121.698 49.1743 121.484 49.2968 121.233 49.3861C120.983 49.4725 120.693 49.5157 120.365 49.5157ZM120.892 48.2452C121.163 48.2452 121.402 48.1919 121.609 48.0853C121.817 47.9759 121.979 47.8289 122.097 47.6446C122.216 47.4602 122.275 47.2513 122.275 47.018V46.3136C122.217 46.351 122.138 46.3856 122.037 46.4173C121.939 46.4461 121.828 46.4735 121.704 46.4994C121.58 46.5224 121.456 46.5441 121.333 46.5642C121.209 46.5815 121.096 46.5974 120.996 46.6118C120.779 46.6434 120.591 46.6939 120.429 46.763C120.268 46.8321 120.143 46.9258 120.053 47.0439C119.964 47.1591 119.919 47.3032 119.919 47.476C119.919 47.7267 120.01 47.9182 120.192 48.0508C120.376 48.1804 120.609 48.2452 120.892 48.2452ZM128.521 52.0178C127.925 52.0178 127.413 51.9357 126.987 51.7714C126.564 51.6101 126.226 51.3897 125.976 51.1103C125.725 50.8308 125.562 50.5168 125.488 50.1682L127.19 49.9392C127.242 50.0717 127.324 50.1956 127.436 50.3108C127.549 50.4261 127.697 50.5183 127.882 50.5874C128.069 50.6594 128.296 50.6954 128.564 50.6954C128.965 50.6954 129.295 50.5975 129.554 50.4016C129.816 50.2086 129.947 49.8845 129.947 49.4293V48.215H129.869C129.789 48.3994 129.668 48.5736 129.506 48.7379C129.345 48.9021 129.138 49.036 128.884 49.1397C128.631 49.2435 128.328 49.2953 127.977 49.2953C127.478 49.2953 127.025 49.1801 126.615 48.9496C126.209 48.7163 125.885 48.3605 125.643 47.8822C125.404 47.4011 125.284 46.7933 125.284 46.0586C125.284 45.3067 125.407 44.6787 125.652 44.1745C125.897 43.6704 126.222 43.293 126.628 43.0423C127.037 42.7917 127.485 42.6664 127.972 42.6664C128.344 42.6664 128.655 42.7297 128.906 42.8565C129.156 42.9804 129.358 43.136 129.511 43.3232C129.666 43.5076 129.786 43.6891 129.869 43.8677H129.939V42.7528H131.766V49.4552C131.766 50.0199 131.628 50.4923 131.352 50.8726C131.075 51.2529 130.692 51.5381 130.202 51.7282C129.715 51.9212 129.155 52.0178 128.521 52.0178ZM128.56 47.9125C128.857 47.9125 129.107 47.839 129.312 47.6921C129.519 47.5423 129.678 47.3291 129.787 47.0525C129.9 46.7731 129.956 46.4389 129.956 46.05C129.956 45.6611 129.901 45.324 129.792 45.0388C129.682 44.7507 129.524 44.5274 129.316 44.369C129.109 44.2105 128.857 44.1313 128.56 44.1313C128.258 44.1313 128.003 44.2134 127.795 44.3776C127.588 44.5389 127.431 44.7637 127.324 45.0517C127.218 45.3398 127.164 45.6726 127.164 46.05C127.164 46.4331 127.218 46.7644 127.324 47.0439C127.434 47.3205 127.591 47.5351 127.795 47.6878C128.003 47.8376 128.258 47.9125 128.56 47.9125ZM136.256 49.52C135.574 49.52 134.986 49.3817 134.493 49.1052C134.003 48.8257 133.626 48.431 133.361 47.9211C133.096 47.4083 132.963 46.8019 132.963 46.1018C132.963 45.4191 133.096 44.8198 133.361 44.3042C133.626 43.7885 133.999 43.3866 134.48 43.0985C134.964 42.8104 135.532 42.6664 136.183 42.6664C136.621 42.6664 137.028 42.7369 137.406 42.8781C137.786 43.0164 138.117 43.2253 138.4 43.5047C138.685 43.7842 138.907 44.1356 139.065 44.5591C139.224 44.9797 139.303 45.4724 139.303 46.037V46.5426H133.698V45.4018H137.57C137.57 45.1367 137.512 44.9019 137.397 44.6974C137.282 44.4929 137.122 44.333 136.918 44.2177C136.716 44.0996 136.481 44.0406 136.213 44.0406C135.934 44.0406 135.686 44.1054 135.47 44.235C135.257 44.3618 135.09 44.5332 134.969 44.7493C134.848 44.9624 134.786 45.2001 134.783 45.4623V46.5469C134.783 46.8754 134.843 47.1591 134.964 47.3982C135.088 47.6374 135.262 47.8217 135.487 47.9514C135.712 48.081 135.978 48.1458 136.287 48.1458C136.491 48.1458 136.678 48.117 136.848 48.0594C137.018 48.0018 137.164 47.9154 137.285 47.8001C137.406 47.6849 137.498 47.5437 137.561 47.3766L139.264 47.489C139.178 47.8981 139 48.2553 138.732 48.5607C138.467 48.8632 138.125 49.0994 137.704 49.2694C137.286 49.4365 136.804 49.52 136.256 49.52ZM140.504 49.3904V42.7528H142.259V43.9239H142.336C142.475 43.535 142.705 43.2281 143.028 43.0034C143.351 42.7787 143.737 42.6664 144.186 42.6664C144.641 42.6664 145.029 42.7802 145.348 43.0078C145.668 43.2325 145.881 43.5378 145.988 43.9239H146.057C146.193 43.5436 146.437 43.2397 146.792 43.0121C147.149 42.7816 147.571 42.6664 148.058 42.6664C148.677 42.6664 149.18 42.8637 149.566 43.2584C149.955 43.6502 150.149 44.2062 150.149 44.9264V49.3904H148.313V45.2894C148.313 44.9207 148.215 44.6441 148.019 44.4597C147.823 44.2753 147.578 44.1832 147.284 44.1832C146.95 44.1832 146.69 44.2898 146.502 44.5029C146.315 44.7132 146.221 44.9913 146.221 45.337V49.3904H144.437V45.2505C144.437 44.925 144.343 44.6657 144.156 44.4727C143.971 44.2797 143.728 44.1832 143.425 44.1832C143.221 44.1832 143.037 44.235 142.872 44.3387C142.711 44.4396 142.583 44.5822 142.488 44.7665C142.393 44.948 142.345 45.1612 142.345 45.4061V49.3904H140.504ZM154.629 49.52C153.946 49.52 153.358 49.3817 152.865 49.1052C152.376 48.8257 151.998 48.431 151.733 47.9211C151.468 47.4083 151.336 46.8019 151.336 46.1018C151.336 45.4191 151.468 44.8198 151.733 44.3042C151.998 43.7885 152.371 43.3866 152.852 43.0985C153.336 42.8104 153.904 42.6664 154.555 42.6664C154.993 42.6664 155.401 42.7369 155.778 42.8781C156.158 43.0164 156.49 43.2253 156.772 43.5047C157.057 43.7842 157.279 44.1356 157.437 44.5591C157.596 44.9797 157.675 45.4724 157.675 46.037V46.5426H152.07V45.4018H155.942C155.942 45.1367 155.885 44.9019 155.769 44.6974C155.654 44.4929 155.494 44.333 155.29 44.2177C155.088 44.0996 154.853 44.0406 154.585 44.0406C154.306 44.0406 154.058 44.1054 153.842 44.235C153.629 44.3618 153.462 44.5332 153.341 44.7493C153.22 44.9624 153.158 45.2001 153.155 45.4623V46.5469C153.155 46.8754 153.215 47.1591 153.336 47.3982C153.46 47.6374 153.635 47.8217 153.859 47.9514C154.084 48.081 154.351 48.1458 154.659 48.1458C154.863 48.1458 155.051 48.117 155.221 48.0594C155.391 48.0018 155.536 47.9154 155.657 47.8001C155.778 47.6849 155.87 47.5437 155.934 47.3766L157.636 47.489C157.55 47.8981 157.373 48.2553 157.105 48.5607C156.84 48.8632 156.497 49.0994 156.076 49.2694C155.658 49.4365 155.176 49.52 154.629 49.52ZM160.717 45.553V49.3904H158.876V42.7528H160.631V43.9239H160.709C160.856 43.5378 161.102 43.2325 161.448 43.0078C161.793 42.7802 162.213 42.6664 162.705 42.6664C163.166 42.6664 163.568 42.7672 163.911 42.9689C164.254 43.1705 164.52 43.4586 164.71 43.8331C164.9 44.2048 164.995 44.6484 164.995 45.1641V49.3904H163.155V45.4925C163.157 45.0863 163.054 44.7694 162.843 44.5418C162.633 44.3114 162.344 44.1961 161.975 44.1961C161.727 44.1961 161.508 44.2494 161.318 44.356C161.131 44.4626 160.984 44.6182 160.877 44.8227C160.773 45.0244 160.72 45.2678 160.717 45.553ZM169.977 42.7528V44.1356H165.98V42.7528H169.977ZM166.887 41.1625H168.728V47.3507C168.728 47.5207 168.754 47.6532 168.806 47.7483C168.858 47.8405 168.93 47.9053 169.022 47.9427C169.117 47.9802 169.226 47.9989 169.35 47.9989C169.437 47.9989 169.523 47.9917 169.61 47.9773C169.696 47.96 169.762 47.9471 169.808 47.9384L170.098 49.3083C170.006 49.3371 169.876 49.3702 169.709 49.4077C169.542 49.448 169.339 49.4725 169.1 49.4811C168.656 49.4984 168.267 49.4394 167.933 49.304C167.602 49.1686 167.344 48.9582 167.159 48.673C166.975 48.3878 166.884 48.0277 166.887 47.5927V41.1625ZM175.898 40.5403V49.3904H174.027V40.5403H175.898ZM179.244 45.553V49.3904H177.403V42.7528H179.158V43.9239H179.235C179.382 43.5378 179.629 43.2325 179.974 43.0078C180.32 42.7802 180.739 42.6664 181.232 42.6664C181.693 42.6664 182.095 42.7672 182.437 42.9689C182.78 43.1705 183.047 43.4586 183.237 43.8331C183.427 44.2048 183.522 44.6484 183.522 45.1641V49.3904H181.681V45.4925C181.684 45.0863 181.58 44.7694 181.37 44.5418C181.16 44.3114 180.87 44.1961 180.502 44.1961C180.254 44.1961 180.035 44.2494 179.845 44.356C179.657 44.4626 179.51 44.6182 179.404 44.8227C179.3 45.0244 179.247 45.2678 179.244 45.553ZM188.542 42.7528V44.1356H184.446V42.7528H188.542ZM185.384 49.3904V42.2731C185.384 41.792 185.477 41.393 185.664 41.0761C185.855 40.7592 186.114 40.5215 186.442 40.3631C186.771 40.2046 187.144 40.1254 187.562 40.1254C187.844 40.1254 188.102 40.147 188.335 40.1902C188.571 40.2334 188.747 40.2723 188.862 40.3069L188.534 41.6897C188.462 41.6667 188.372 41.6451 188.266 41.6249C188.162 41.6048 188.056 41.5947 187.946 41.5947C187.675 41.5947 187.487 41.6581 187.38 41.7848C187.273 41.9087 187.22 42.083 187.22 42.3077V49.3904H185.384ZM192.428 49.52C191.757 49.52 191.177 49.3774 190.687 49.0922C190.2 48.8041 189.824 48.4037 189.559 47.8909C189.294 47.3752 189.161 46.7774 189.161 46.0975C189.161 45.4119 189.294 44.8126 189.559 44.2998C189.824 43.7842 190.2 43.3837 190.687 43.0985C191.177 42.8104 191.757 42.6664 192.428 42.6664C193.1 42.6664 193.679 42.8104 194.166 43.0985C194.655 43.3837 195.033 43.7842 195.298 44.2998C195.563 44.8126 195.695 45.4119 195.695 46.0975C195.695 46.7774 195.563 47.3752 195.298 47.8909C195.033 48.4037 194.655 48.8041 194.166 49.0922C193.679 49.3774 193.1 49.52 192.428 49.52ZM192.437 48.094C192.742 48.094 192.997 48.0076 193.202 47.8347C193.407 47.659 193.561 47.4198 193.664 47.1174C193.771 46.8149 193.824 46.4706 193.824 46.0846C193.824 45.6985 193.771 45.3542 193.664 45.0517C193.561 44.7493 193.407 44.5101 193.202 44.3344C192.997 44.1587 192.742 44.0708 192.437 44.0708C192.129 44.0708 191.87 44.1587 191.659 44.3344C191.452 44.5101 191.295 44.7493 191.188 45.0517C191.084 45.3542 191.033 45.6985 191.033 46.0846C191.033 46.4706 191.084 46.8149 191.188 47.1174C191.295 47.4198 191.452 47.659 191.659 47.8347C191.87 48.0076 192.129 48.094 192.437 48.094ZM196.892 49.3904V42.7528H198.677V43.9109H198.746C198.867 43.4989 199.07 43.1878 199.356 42.9775C199.641 42.7643 199.969 42.6577 200.341 42.6577C200.433 42.6577 200.532 42.6635 200.639 42.675C200.746 42.6865 200.839 42.7024 200.92 42.7225V44.356C200.833 44.3301 200.714 44.307 200.561 44.2869C200.409 44.2667 200.269 44.2566 200.142 44.2566C199.871 44.2566 199.629 44.3157 199.416 44.4338C199.206 44.549 199.039 44.7104 198.915 44.9178C198.794 45.1252 198.733 45.3643 198.733 45.6351V49.3904H196.892ZM201.872 49.3904V42.7528H203.626V43.9239H203.704C203.842 43.535 204.073 43.2281 204.395 43.0034C204.718 42.7787 205.104 42.6664 205.553 42.6664C206.009 42.6664 206.396 42.7802 206.716 43.0078C207.036 43.2325 207.249 43.5378 207.355 43.9239H207.425C207.56 43.5436 207.805 43.2397 208.159 43.0121C208.516 42.7816 208.938 42.6664 209.425 42.6664C210.045 42.6664 210.547 42.8637 210.934 43.2584C211.322 43.6502 211.517 44.2062 211.517 44.9264V49.3904H209.68V45.2894C209.68 44.9207 209.582 44.6441 209.386 44.4597C209.191 44.2753 208.946 44.1832 208.652 44.1832C208.318 44.1832 208.057 44.2898 207.87 44.5029C207.682 44.7132 207.589 44.9913 207.589 45.337V49.3904H205.804V45.2505C205.804 44.925 205.71 44.6657 205.523 44.4727C205.339 44.2797 205.095 44.1832 204.793 44.1832C204.588 44.1832 204.404 44.235 204.24 44.3387C204.078 44.4396 203.95 44.5822 203.855 44.7665C203.76 44.948 203.713 45.1612 203.713 45.4061V49.3904H201.872ZM214.864 49.5157C214.44 49.5157 214.063 49.4422 213.732 49.2953C213.4 49.1455 213.138 48.9251 212.945 48.6341C212.755 48.3403 212.66 47.9744 212.66 47.5365C212.66 47.1678 212.728 46.8581 212.863 46.6074C212.998 46.3568 213.183 46.1551 213.416 46.0024C213.649 45.8498 213.915 45.7345 214.211 45.6567C214.511 45.579 214.825 45.5242 215.153 45.4925C215.539 45.4522 215.85 45.4147 216.087 45.3802C216.323 45.3427 216.494 45.288 216.601 45.216C216.708 45.1439 216.761 45.0373 216.761 44.8962V44.8703C216.761 44.5966 216.674 44.3848 216.502 44.235C216.332 44.0852 216.09 44.0103 215.776 44.0103C215.444 44.0103 215.181 44.0838 214.985 44.2307C214.789 44.3747 214.659 44.5562 214.596 44.7752L212.893 44.6369C212.98 44.2336 213.15 43.885 213.403 43.5911C213.657 43.2944 213.984 43.0668 214.384 42.9084C214.787 42.747 215.254 42.6664 215.784 42.6664C216.153 42.6664 216.506 42.7096 216.843 42.796C217.183 42.8824 217.484 43.0164 217.746 43.1979C218.011 43.3794 218.22 43.6127 218.373 43.898C218.525 44.1803 218.602 44.5188 218.602 44.9135V49.3904H216.856V48.4699H216.804C216.697 48.6774 216.555 48.8603 216.376 49.0187C216.198 49.1743 215.983 49.2968 215.732 49.3861C215.482 49.4725 215.192 49.5157 214.864 49.5157ZM215.391 48.2452C215.662 48.2452 215.901 48.1919 216.108 48.0853C216.316 47.9759 216.479 47.8289 216.597 47.6446C216.715 47.4602 216.774 47.2513 216.774 47.018V46.3136C216.716 46.351 216.637 46.3856 216.536 46.4173C216.438 46.4461 216.327 46.4735 216.203 46.4994C216.08 46.5224 215.956 46.5441 215.832 46.5642C215.708 46.5815 215.596 46.5974 215.495 46.6118C215.279 46.6434 215.09 46.6939 214.929 46.763C214.767 46.8321 214.642 46.9258 214.553 47.0439C214.463 47.1591 214.419 47.3032 214.419 47.476C214.419 47.7267 214.509 47.9182 214.691 48.0508C214.875 48.1804 215.109 48.2452 215.391 48.2452ZM223.56 42.7528V44.1356H219.563V42.7528H223.56ZM220.471 41.1625H222.312V47.3507C222.312 47.5207 222.338 47.6532 222.389 47.7483C222.441 47.8405 222.513 47.9053 222.605 47.9427C222.701 47.9802 222.81 47.9989 222.934 47.9989C223.02 47.9989 223.107 47.9917 223.193 47.9773C223.28 47.96 223.346 47.9471 223.392 47.9384L223.681 49.3083C223.589 49.3371 223.46 49.3702 223.293 49.4077C223.125 49.448 222.922 49.4725 222.683 49.4811C222.24 49.4984 221.851 49.4394 221.516 49.304C221.185 49.1686 220.927 48.9582 220.743 48.673C220.559 48.3878 220.468 48.0277 220.471 47.5927V41.1625ZM224.76 49.3904V42.7528H226.601V49.3904H224.76ZM225.684 41.8972C225.411 41.8972 225.176 41.8064 224.98 41.6249C224.787 41.4405 224.691 41.2202 224.691 40.9638C224.691 40.7102 224.787 40.4927 224.98 40.3112C225.176 40.1269 225.411 40.0347 225.684 40.0347C225.958 40.0347 226.191 40.1269 226.384 40.3112C226.58 40.4927 226.678 40.7102 226.678 40.9638C226.678 41.2202 226.58 41.4405 226.384 41.6249C226.191 41.8064 225.958 41.8972 225.684 41.8972ZM231.074 49.52C230.403 49.52 229.822 49.3774 229.333 49.0922C228.846 48.8041 228.47 48.4037 228.205 47.8909C227.94 47.3752 227.807 46.7774 227.807 46.0975C227.807 45.4119 227.94 44.8126 228.205 44.2998C228.47 43.7842 228.846 43.3837 229.333 43.0985C229.822 42.8104 230.403 42.6664 231.074 42.6664C231.745 42.6664 232.325 42.8104 232.811 43.0985C233.301 43.3837 233.679 43.7842 233.944 44.2998C234.209 44.8126 234.341 45.4119 234.341 46.0975C234.341 46.7774 234.209 47.3752 233.944 47.8909C233.679 48.4037 233.301 48.8041 232.811 49.0922C232.325 49.3774 231.745 49.52 231.074 49.52ZM231.083 48.094C231.388 48.094 231.643 48.0076 231.848 47.8347C232.052 47.659 232.206 47.4198 232.31 47.1174C232.417 46.8149 232.47 46.4706 232.47 46.0846C232.47 45.6985 232.417 45.3542 232.31 45.0517C232.206 44.7493 232.052 44.5101 231.848 44.3344C231.643 44.1587 231.388 44.0708 231.083 44.0708C230.775 44.0708 230.515 44.1587 230.305 44.3344C230.098 44.5101 229.941 44.7493 229.834 45.0517C229.73 45.3542 229.678 45.6985 229.678 46.0846C229.678 46.4706 229.73 46.8149 229.834 47.1174C229.941 47.4198 230.098 47.659 230.305 47.8347C230.515 48.0076 230.775 48.094 231.083 48.094ZM237.379 45.553V49.3904H235.538V42.7528H237.293V43.9239H237.37C237.517 43.5378 237.764 43.2325 238.109 43.0078C238.455 42.7802 238.874 42.6664 239.367 42.6664C239.828 42.6664 240.23 42.7672 240.573 42.9689C240.915 43.1705 241.182 43.4586 241.372 43.8331C241.562 44.2048 241.657 44.6484 241.657 45.1641V49.3904H239.816V45.4925C239.819 45.0863 239.715 44.7694 239.505 44.5418C239.295 44.3114 239.005 44.1961 238.637 44.1961C238.389 44.1961 238.17 44.2494 237.98 44.356C237.792 44.4626 237.646 44.6182 237.539 44.8227C237.435 45.0244 237.382 45.2678 237.379 45.553ZM250.76 43.0855C250.726 42.7369 250.577 42.4661 250.315 42.2731C250.053 42.0801 249.697 41.9836 249.248 41.9836C248.942 41.9836 248.684 42.0268 248.474 42.1132C248.264 42.1968 248.102 42.3135 247.99 42.4633C247.881 42.6131 247.826 42.783 247.826 42.9732C247.82 43.1316 247.853 43.2699 247.925 43.388C248 43.5061 248.102 43.6084 248.232 43.6948C248.362 43.7784 248.512 43.8519 248.682 43.9152C248.852 43.9757 249.033 44.0276 249.226 44.0708L250.021 44.2609C250.407 44.3474 250.762 44.4626 251.084 44.6067C251.407 44.7507 251.686 44.9279 251.923 45.1382C252.159 45.3485 252.342 45.5962 252.471 45.8814C252.604 46.1667 252.672 46.4936 252.674 46.8624C252.672 47.404 252.533 47.8736 252.26 48.2712C251.989 48.6658 251.597 48.9727 251.084 49.1916C250.574 49.4077 249.959 49.5157 249.239 49.5157C248.525 49.5157 247.902 49.4062 247.372 49.1873C246.845 48.9683 246.433 48.6442 246.136 48.215C245.842 47.7828 245.688 47.2484 245.674 46.6118H247.485C247.505 46.9085 247.59 47.1562 247.74 47.355C247.892 47.5509 248.095 47.6993 248.349 47.8001C248.605 47.8981 248.895 47.9471 249.217 47.9471C249.534 47.9471 249.809 47.901 250.043 47.8088C250.279 47.7166 250.462 47.5884 250.592 47.4242C250.721 47.26 250.786 47.0713 250.786 46.8581C250.786 46.6593 250.727 46.4922 250.609 46.3568C250.494 46.2214 250.324 46.1062 250.099 46.0111C249.877 45.916 249.605 45.8296 249.282 45.7518L248.319 45.5098C247.572 45.3283 246.983 45.0445 246.551 44.6585C246.119 44.2725 245.904 43.7525 245.907 43.0985C245.904 42.5627 246.047 42.0945 246.335 41.6941C246.626 41.2936 247.025 40.981 247.532 40.7563C248.039 40.5316 248.615 40.4193 249.261 40.4193C249.917 40.4193 250.491 40.5316 250.981 40.7563C251.473 40.981 251.856 41.2936 252.13 41.6941C252.404 42.0945 252.545 42.5583 252.553 43.0855H250.76ZM255.035 51.8795C254.802 51.8795 254.583 51.8608 254.378 51.8233C254.176 51.7887 254.009 51.7441 253.877 51.6893L254.292 50.3151C254.508 50.3814 254.702 50.4174 254.875 50.4232C255.051 50.4289 255.202 50.3886 255.329 50.3022C255.458 50.2158 255.564 50.0688 255.644 49.8614L255.752 49.5805L253.371 42.7528H255.307L256.681 47.6273H256.751L258.138 42.7528H260.087L257.507 50.1077C257.383 50.465 257.214 50.7761 257.001 51.0411C256.791 51.3091 256.524 51.515 256.202 51.6591C255.879 51.806 255.49 51.8795 255.035 51.8795ZM266.551 44.6455L264.866 44.7493C264.837 44.6052 264.775 44.4756 264.68 44.3603C264.585 44.2422 264.46 44.1486 264.304 44.0794C264.152 44.0074 263.969 43.9714 263.755 43.9714C263.47 43.9714 263.23 44.0319 263.034 44.1529C262.838 44.271 262.74 44.4295 262.74 44.6283C262.74 44.7867 262.803 44.9207 262.93 45.0301C263.057 45.1396 263.274 45.2275 263.583 45.2937L264.784 45.5357C265.429 45.6683 265.91 45.8814 266.227 46.1753C266.544 46.4692 266.703 46.8552 266.703 47.3334C266.703 47.7684 266.574 48.1502 266.318 48.4786C266.065 48.807 265.716 49.0634 265.272 49.2478C264.832 49.4293 264.323 49.52 263.747 49.52C262.868 49.52 262.168 49.3371 261.647 48.9712C261.128 48.6025 260.824 48.1012 260.735 47.4674L262.546 47.3723C262.6 47.6402 262.733 47.8448 262.943 47.9859C263.153 48.1242 263.423 48.1934 263.751 48.1934C264.074 48.1934 264.333 48.1314 264.529 48.0076C264.728 47.8808 264.829 47.718 264.832 47.5192C264.829 47.3521 264.758 47.2153 264.62 47.1087C264.481 46.9992 264.268 46.9157 263.98 46.8581L262.831 46.629C262.183 46.4994 261.7 46.2747 261.383 45.9549C261.069 45.6351 260.912 45.2275 260.912 44.732C260.912 44.3056 261.027 43.9383 261.258 43.63C261.491 43.3218 261.818 43.0841 262.239 42.917C262.662 42.7499 263.158 42.6664 263.725 42.6664C264.564 42.6664 265.223 42.8435 265.704 43.1979C266.188 43.5522 266.471 44.0348 266.551 44.6455ZM271.392 42.7528V44.1356H267.395V42.7528H271.392ZM268.303 41.1625H270.144V47.3507C270.144 47.5207 270.169 47.6532 270.221 47.7483C270.273 47.8405 270.345 47.9053 270.437 47.9427C270.532 47.9802 270.642 47.9989 270.766 47.9989C270.852 47.9989 270.939 47.9917 271.025 47.9773C271.111 47.96 271.178 47.9471 271.224 47.9384L271.513 49.3083C271.421 49.3371 271.292 49.3702 271.124 49.4077C270.957 49.448 270.754 49.4725 270.515 49.4811C270.071 49.4984 269.683 49.4394 269.348 49.304C269.017 49.1686 268.759 48.9582 268.575 48.673C268.39 48.3878 268.3 48.0277 268.303 47.5927V41.1625ZM275.545 49.52C274.862 49.52 274.275 49.3817 273.782 49.1052C273.292 48.8257 272.915 48.431 272.65 47.9211C272.385 47.4083 272.252 46.8019 272.252 46.1018C272.252 45.4191 272.385 44.8198 272.65 44.3042C272.915 43.7885 273.288 43.3866 273.769 43.0985C274.253 42.8104 274.821 42.6664 275.472 42.6664C275.91 42.6664 276.317 42.7369 276.695 42.8781C277.075 43.0164 277.406 43.2253 277.689 43.5047C277.974 43.7842 278.196 44.1356 278.354 44.5591C278.513 44.9797 278.592 45.4724 278.592 46.037V46.5426H272.987V45.4018H276.859C276.859 45.1367 276.801 44.9019 276.686 44.6974C276.571 44.4929 276.411 44.333 276.206 44.2177C276.005 44.0996 275.77 44.0406 275.502 44.0406C275.223 44.0406 274.975 44.1054 274.759 44.235C274.546 44.3618 274.378 44.5332 274.257 44.7493C274.136 44.9624 274.075 45.2001 274.072 45.4623V46.5469C274.072 46.8754 274.132 47.1591 274.253 47.3982C274.377 47.6374 274.551 47.8217 274.776 47.9514C275.001 48.081 275.267 48.1458 275.575 48.1458C275.78 48.1458 275.967 48.117 276.137 48.0594C276.307 48.0018 276.453 47.9154 276.574 47.8001C276.695 47.6849 276.787 47.5437 276.85 47.3766L278.553 47.489C278.466 47.8981 278.289 48.2553 278.021 48.5607C277.756 48.8632 277.413 49.0994 276.993 49.2694C276.575 49.4365 276.093 49.52 275.545 49.52ZM279.793 49.3904V42.7528H281.548V43.9239H281.625C281.764 43.535 281.994 43.2281 282.317 43.0034C282.639 42.7787 283.025 42.6664 283.475 42.6664C283.93 42.6664 284.318 42.7802 284.637 43.0078C284.957 43.2325 285.17 43.5378 285.277 43.9239H285.346C285.481 43.5436 285.726 43.2397 286.081 43.0121C286.438 42.7816 286.86 42.6664 287.347 42.6664C287.966 42.6664 288.469 42.8637 288.855 43.2584C289.244 43.6502 289.438 44.2062 289.438 44.9264V49.3904H287.602V45.2894C287.602 44.9207 287.504 44.6441 287.308 44.4597C287.112 44.2753 286.867 44.1832 286.573 44.1832C286.239 44.1832 285.978 44.2898 285.791 44.5029C285.604 44.7132 285.51 44.9913 285.51 45.337V49.3904H283.726V45.2505C283.726 44.925 283.632 44.6657 283.445 44.4727C283.26 44.2797 283.017 44.1832 282.714 44.1832C282.51 44.1832 282.325 44.235 282.161 44.3387C282 44.4396 281.872 44.5822 281.777 44.7665C281.682 44.948 281.634 45.1612 281.634 45.4061V49.3904H279.793Z" fill="#404040"/>
</svg>
