<svg width="620" height="470" viewBox="0 0 620 470" fill="none" xmlns="http://www.w3.org/2000/svg">
<path d="M565.412 241.332C561.592 300.402 516.292 356.802 454.922 360.332C384.452 365.732 319.762 327.082 249.552 326.672C213.762 323.612 180.182 337.312 145.302 341.742C66.5116 344.632 54.5016 252.042 69.2016 192.352C131.172 -89.0483 569.702 -50.7683 565.412 241.332Z" fill="#EDDAC5"/>
<path d="M563.902 469.462H509.962L490.122 374.872L476.362 469.462H419.862L427.632 399.042L432.532 354.742L435.482 328.032L512.142 308.272L546.752 310.182L563.902 469.462Z" fill="#6BB2AB"/>
<path d="M486.771 367.842L459.321 351.732L451.611 347.192C451.121 346.892 450.751 347.712 451.241 348.002L478.611 364.102L486.361 368.652C486.901 368.942 487.261 368.122 486.771 367.842Z" fill="#389688"/>
<path d="M485.112 369.872L465.462 364.872C464.912 364.722 464.772 365.612 465.322 365.752L484.972 370.752C485.532 370.892 485.672 370.012 485.112 369.872Z" fill="#389688"/>
<path d="M550.612 404.132C548.392 384.798 546.168 365.445 543.942 346.072C542.695 335.112 541.438 324.155 540.172 313.202C540.148 313.093 540.085 312.996 539.994 312.931C539.904 312.866 539.792 312.836 539.681 312.849C539.57 312.861 539.468 312.915 539.394 312.998C539.32 313.082 539.28 313.19 539.282 313.302L545.982 371.652C548.202 390.985 550.425 410.335 552.652 429.702C553.912 440.662 555.168 451.622 556.422 462.582C556.445 462.691 556.508 462.788 556.599 462.853C556.689 462.918 556.801 462.947 556.912 462.935C557.023 462.922 557.125 462.869 557.199 462.785C557.273 462.702 557.313 462.593 557.312 462.482L550.612 404.132Z" fill="#389688"/>
<path d="M619.932 122.062C619.102 129.752 617.002 137.262 614.932 144.722L609.202 165.292L587.612 164.762C585.347 163.299 583.434 161.352 582.012 159.062C580.091 155.79 578.532 152.32 577.362 148.712C576.196 145.092 574.551 141.645 572.472 138.462C571.533 137.364 570.792 136.112 570.282 134.762C569.892 133.372 570.342 131.612 571.672 131.052C573.002 130.492 574.672 131.492 575.842 132.522C580.075 136.256 583.708 140.62 586.612 145.462H586.672C587.072 133.102 587.475 120.738 587.882 108.372C587.87 107.674 587.981 106.98 588.212 106.322C588.332 105.992 588.54 105.702 588.813 105.481C589.086 105.261 589.414 105.119 589.762 105.072C591.052 104.992 591.762 106.532 592.072 107.792C594.044 115.769 595.101 123.945 595.222 132.162C595.812 123.542 596.682 114.922 597.822 106.352C598.062 104.552 598.362 102.642 599.582 101.292C599.799 101.02 600.074 100.801 600.388 100.651C600.701 100.5 601.044 100.422 601.392 100.422C602.682 100.552 603.182 102.152 603.392 103.422C604.611 112.915 604.762 122.515 603.842 132.042C605.395 123.922 606.952 115.802 608.512 107.682C608.537 107.245 608.651 106.819 608.845 106.427C609.039 106.035 609.31 105.686 609.642 105.402C610.832 104.652 612.382 105.732 613.062 106.962C614.232 109.142 614.062 111.772 613.832 114.232C612.964 121.252 611.726 128.222 610.122 135.112C611.922 130.152 613.792 125.218 615.732 120.312C616.122 119.312 616.732 118.182 617.732 118.052C618.175 118.033 618.613 118.162 618.975 118.419C619.337 118.676 619.603 119.046 619.732 119.472C619.997 120.308 620.066 121.194 619.932 122.062Z" fill="#E88846"/>
<path d="M432.532 354.742L427.632 399.042C423.271 397.742 418.892 391.672 417.572 388.162C414.802 381.672 415.572 374.492 415.492 367.582C415.832 362.782 414.072 357.022 416.492 352.712C420.152 350.052 425.231 352.582 429.161 353.492C430.343 353.731 431.48 354.153 432.532 354.742Z" fill="#E88846"/>
<path d="M608.612 164.142L585.832 163.572H584.562L579.442 183.982C579.442 183.982 567.052 155.982 556.812 143.582C546.572 131.182 512.142 131.462 512.142 131.462L465.922 140.912C465.922 140.912 434.112 159.642 424.812 166.122C415.512 172.602 410.692 173.962 408.702 209.772C406.712 245.582 410.192 356.262 410.192 356.262C410.192 356.262 417.702 362.912 432.192 357.702L435.102 331.462C435.102 331.462 478.522 350.902 508.302 313.582C508.302 313.582 537.462 313.212 546.752 310.232L544.752 257.442L546.752 218.782C546.752 218.782 566.342 260.052 589.642 259.172C612.942 258.292 610.702 204.772 611.192 164.252L608.612 164.142ZM440.922 284.662L441.752 237.232L445.882 260.532L440.922 284.662Z" fill="#AF3737"/>
<path d="M512.142 131.462C512.142 131.462 511.592 136.282 510.382 142.052C508.982 148.662 506.702 156.532 503.382 159.792L499.382 158.062L492.022 172.842L477.732 162.932L474.012 166.162C474.012 166.162 463.402 160.702 458.562 145.342C458.562 145.342 459.562 139.342 467.352 139.112L467.471 143.392L486.992 152.392L503.352 135.462L501.872 130.882C505.249 129.8 508.907 130.007 512.142 131.462Z" fill="#F4E9DC"/>
<path d="M611.002 133.122C605.522 131.356 599.808 130.419 594.052 130.342C593.472 130.342 593.582 131.222 594.142 131.232C599.742 131.301 605.301 132.211 610.632 133.932C611.172 134.112 611.552 133.302 611.002 133.122Z" fill="#C4532C"/>
<path d="M604.972 139.462C601.255 141.525 597.853 144.112 594.872 147.142C594.472 147.552 595.162 148.142 595.562 147.702C598.495 144.733 601.839 142.2 605.492 140.182C605.992 139.872 605.462 139.152 604.972 139.462Z" fill="#C4532C"/>
<path d="M439.472 198.322L438.842 186.872C438.842 186.292 437.922 186.392 437.952 186.972C438.705 200.505 439.458 214.035 440.212 227.562L440.852 239.022C440.852 239.592 441.772 239.492 441.732 238.922C440.985 225.395 440.232 211.862 439.472 198.322Z" fill="#8E2323"/>
<path d="M547.022 217.182C544.755 210.248 542.248 203.402 539.502 196.642C538.722 194.702 537.912 192.772 537.092 190.852C536.862 190.322 536.032 190.642 536.262 191.172C539.128 197.838 541.765 204.632 544.172 211.552C544.862 213.552 545.542 215.552 546.172 217.502C546.372 218.052 547.202 217.722 547.022 217.182Z" fill="#8E2323"/>
<path d="M543.612 216.842L531.282 201.602C530.922 201.152 530.192 201.672 530.562 202.122L542.892 217.372C543.222 217.812 543.942 217.292 543.612 216.842Z" fill="#8E2323"/>
<path d="M578.452 185.022C576.258 193.088 574.065 201.158 571.872 209.232L570.012 216.082C569.862 216.642 570.742 216.772 570.892 216.222C573.085 208.162 575.278 200.095 577.471 192.022L579.331 185.162C579.481 184.612 578.612 184.462 578.452 185.022Z" fill="#8E2323"/>
<path d="M528.032 293.582L509.802 312.692C509.412 313.112 510.102 313.692 510.492 313.262L528.722 294.142C529.112 293.732 528.422 293.172 528.032 293.582Z" fill="#8E2323"/>
<path d="M517.092 297.662C510.312 305.512 503.402 313.362 495.162 319.722C487.342 325.722 478.252 330.452 468.352 331.722C462.584 332.501 456.713 331.933 451.202 330.062C450.662 329.872 450.292 330.682 450.832 330.872C460.642 334.332 471.472 333.182 480.942 329.222C490.412 325.262 498.382 318.862 505.522 311.722C509.812 307.432 513.812 302.852 517.782 298.262C518.162 297.792 517.472 297.232 517.092 297.662Z" fill="#8E2323"/>
<path d="M440.032 285.832C438.207 291.947 436.761 298.169 435.702 304.462C435.182 307.562 434.752 310.678 434.412 313.812C434.102 316.752 433.802 319.722 433.762 322.682C433.722 325.642 434.122 328.612 435.902 331.002C435.979 331.079 436.081 331.125 436.19 331.133C436.298 331.14 436.406 331.108 436.493 331.042C436.58 330.976 436.64 330.881 436.661 330.774C436.683 330.667 436.666 330.556 436.612 330.462C435.171 328.295 434.469 325.72 434.612 323.122C434.651 320.196 434.852 317.275 435.212 314.372C435.846 308.25 436.848 302.173 438.212 296.172C438.992 292.758 439.882 289.372 440.882 286.012C441.082 285.462 440.202 285.292 440.032 285.832Z" fill="#8E2323"/>
<path d="M510.612 214.062C500.957 221.009 492.151 229.064 484.372 238.062C482.172 240.602 480.062 243.212 478.042 245.892C477.692 246.352 478.382 246.892 478.732 246.462C485.866 237.012 494.086 228.433 503.222 220.902C505.795 218.788 508.432 216.762 511.132 214.822C511.552 214.462 511.022 213.732 510.612 214.062Z" fill="#8E2323"/>
<path d="M506.382 232.952L490.672 243.732C490.202 244.052 490.722 244.732 491.202 244.452L506.902 233.672C507.382 233.352 506.852 232.632 506.382 232.952Z" fill="#8E2323"/>
<path d="M486.412 153.982C483.409 156.606 480.589 159.433 477.972 162.442C477.592 162.872 478.292 163.442 478.662 163.002C481.23 160.054 483.993 157.281 486.932 154.702C487.362 154.322 486.842 153.602 486.412 153.982Z" fill="#E2CAB0"/>
<path d="M499.432 157.462C496.214 155.725 492.872 154.23 489.432 152.992C488.892 152.802 488.522 153.612 489.062 153.812C492.503 155.043 495.846 156.534 499.062 158.272C499.612 158.512 499.932 157.702 499.432 157.462Z" fill="#E2CAB0"/>
<path d="M498.662 86.4617C496.487 90.8809 492.711 94.3063 488.102 96.0417C483.987 97.6351 479.444 97.7377 475.262 96.3317C472.121 97.495 468.809 98.127 465.462 98.2017C462.556 98.2713 459.657 97.9039 456.862 97.1117C454.241 96.4504 451.86 95.0641 449.992 93.1117C446.292 89.0317 446.372 83.2817 447.292 78.1117C444.772 75.0317 442.862 71.1717 443.702 67.1117C444.04 65.4382 444.885 63.9092 446.122 62.7317C447.413 61.6211 448.884 60.7385 450.472 60.1217C452.194 59.4552 453.865 58.6631 455.472 57.7517C457.212 56.6517 458.812 55.3517 460.532 54.2417C463.532 52.3117 467.252 51.0117 470.662 52.7017C471.983 53.3487 473.119 54.32 473.964 55.5248C474.808 56.7296 475.334 58.1288 475.492 59.5917C478.23 58.1667 481.248 57.3611 484.332 57.2317C487.237 57.1724 490.091 58.0028 492.512 59.6117C500.972 65.2517 502.992 77.6017 498.662 86.4617Z" fill="#36344C"/>
<path d="M500.042 100.222L500.792 104.412C501.268 107.094 501.237 109.841 500.702 112.512C500.183 115.045 499.226 117.469 497.872 119.672C496.267 122.291 494.126 124.54 491.589 126.271C489.052 128.002 486.177 129.175 483.153 129.714C480.129 130.253 477.025 130.144 474.047 129.396C471.068 128.647 468.282 127.276 465.872 125.372C461.652 122.08 458.802 117.342 457.872 112.072L457.122 107.872C445.122 110.012 441.872 95.0518 446.352 90.8118L446.712 90.5018C449.842 87.9118 452.762 90.1018 453.802 91.0818C452.052 82.6318 454.962 77.9018 454.962 77.9018C458.606 78.4167 462.299 78.4906 465.962 78.1218C470.436 77.6816 474.819 76.5691 478.962 74.8218C481.817 73.5715 484.56 72.0794 487.162 70.3618C487.162 70.3618 494.662 76.5718 497.092 83.8118C497.092 83.8118 498.402 80.1818 501.612 79.9518C502.505 79.9003 503.398 80.0686 504.212 80.4418C509.922 82.9018 512.032 98.0918 500.042 100.222Z" fill="#E88846"/>
<path d="M503.822 135.052L487.032 152.462L466.352 144.032L466.232 138.972L465.872 125.352C468.28 127.258 471.066 128.631 474.045 129.381C477.023 130.131 480.127 130.241 483.151 129.703C486.175 129.165 489.051 127.992 491.589 126.261C494.126 124.531 496.267 122.281 497.872 119.662L502.382 131.292L503.822 135.052Z" fill="#E88846"/>
<path d="M502.382 131.312L503.822 135.052L502.372 131.312H502.382Z" fill="#E88846"/>
<path d="M497.862 119.682C497.862 119.682 492.942 142.682 466.232 138.992L465.882 125.382C468.29 127.289 471.077 128.663 474.056 129.413C477.035 130.163 480.14 130.273 483.164 129.734C486.189 129.195 489.065 128.02 491.602 126.288C494.139 124.555 496.279 122.303 497.882 119.682H497.862Z" fill="#C4532C"/>
<path d="M482.442 105.642C479.912 106.502 477.362 107.302 474.802 108.062C474.702 102.155 474.518 96.2449 474.252 90.3316C474.252 89.7116 473.252 89.8216 473.252 90.4416C473.532 96.5549 473.718 102.665 473.812 108.772C473.812 109.112 474.212 109.242 474.482 109.162C477.262 108.342 480.025 107.468 482.772 106.542C483.402 106.342 483.032 105.462 482.442 105.642Z" fill="#C4532C"/>
<path d="M488.802 106.172C488.989 108.064 488.662 109.972 487.854 111.694C487.046 113.415 485.787 114.887 484.212 115.952C483.692 116.302 484.282 117.072 484.792 116.722C486.508 115.56 487.879 113.957 488.759 112.08C489.64 110.204 489.996 108.124 489.792 106.062C489.784 105.997 489.765 105.934 489.733 105.876C489.701 105.819 489.659 105.769 489.608 105.728C489.505 105.645 489.373 105.607 489.242 105.622C489.11 105.636 488.99 105.702 488.908 105.806C488.825 105.909 488.787 106.04 488.802 106.172Z" fill="#36344C"/>
<path d="M464.692 110.882C466.79 110.882 468.492 109.18 468.492 107.082C468.492 104.983 466.79 103.282 464.692 103.282C462.593 103.282 460.892 104.983 460.892 107.082C460.892 109.18 462.593 110.882 464.692 110.882Z" fill="#C4532C"/>
<path d="M494.102 102.532C496.2 102.532 497.902 100.83 497.902 98.7316C497.902 96.633 496.2 94.9316 494.102 94.9316C492.003 94.9316 490.302 96.633 490.302 98.7316C490.302 100.83 492.003 102.532 494.102 102.532Z" fill="#C4532C"/>
<path d="M465.943 99.6786C467.394 99.2671 468.158 97.4819 467.65 95.6914C467.142 93.9009 465.554 92.783 464.103 93.1945C462.653 93.6061 461.889 95.3912 462.397 97.1817C462.905 98.9723 464.493 100.09 465.943 99.6786Z" fill="#36344C"/>
<path d="M486.025 94.755C487.475 94.3435 488.239 92.5584 487.731 90.7678C487.223 88.9773 485.636 87.8594 484.185 88.271C482.735 88.6825 481.971 90.4676 482.479 92.2581C482.987 94.0487 484.574 95.1666 486.025 94.755Z" fill="#36344C"/>
<path d="M465.692 88.1416C465.384 87.7432 464.938 87.4754 464.442 87.3916H463.922C463.58 87.4269 463.255 87.5548 462.982 87.7616L459.152 90.0316C458.95 90.1819 458.78 90.3705 458.651 90.5868C458.522 90.803 458.437 91.0425 458.402 91.2916C458.33 91.8079 458.463 92.3317 458.772 92.7516C459.078 93.1547 459.53 93.4206 460.032 93.4916H460.552C460.891 93.4526 461.212 93.3212 461.482 93.1116L465.322 90.8416C465.525 90.6891 465.697 90.4977 465.826 90.2783C465.955 90.059 466.039 89.8162 466.074 89.564C466.108 89.3119 466.092 89.0554 466.026 88.8094C465.961 88.5635 465.847 88.3331 465.692 88.1316V88.1416Z" fill="#36344C"/>
<path d="M479.462 84.2316C479.515 83.7328 479.754 83.2724 480.132 82.9416L480.572 82.6616C480.884 82.5159 481.229 82.4571 481.572 82.4916L486.032 82.4116C486.533 82.4573 486.996 82.6979 487.322 83.0816C487.654 83.4845 487.815 84.0013 487.772 84.5216C487.724 85.0246 487.48 85.4885 487.092 85.8116L486.662 86.0916C486.351 86.2419 486.004 86.3009 485.662 86.2616L481.202 86.3516C480.7 86.3013 480.237 86.0574 479.912 85.6716C479.579 85.2688 479.418 84.752 479.462 84.2316Z" fill="#36344C"/>
<path d="M123.881 353.202L110.271 469.462H174.161L187.261 383.902L202.091 469.462H268.081L248.881 353.202H123.881Z" fill="#AF3737"/>
<path d="M183.162 383.652L166.492 378.862C165.962 378.712 165.832 379.552 166.352 379.702L183.032 384.502C183.612 384.652 183.692 383.802 183.162 383.652Z" fill="#8E2323"/>
<path d="M180.172 386.802L163.972 387.802C163.422 387.802 163.512 388.682 164.062 388.652L180.272 387.652C180.822 387.622 180.722 386.772 180.172 386.802Z" fill="#8E2323"/>
<path d="M152.742 146.232C152.742 146.232 143.742 146.302 139.012 153.442C139.012 153.442 114.572 158.882 109.532 167.652C104.492 176.422 73.8416 226.302 73.8416 226.302L100.242 278.082C100.242 278.082 112.942 274.992 111.552 261.602L119.932 251.132L125.512 285.732L120.512 364.412C120.512 364.412 138.282 380.412 149.512 381.792C160.742 383.172 188.302 364.252 188.302 364.252C188.302 364.252 215.222 381.862 225.232 382.872C235.242 383.882 251.762 363.322 251.762 363.322L243.002 269.982L244.632 216.682L272.792 230.682C272.792 230.682 282.492 246.552 299.792 236.172L293.252 193.672C293.252 193.672 249.422 162.202 239.182 155.262C228.942 148.322 194.952 148.982 194.952 148.982C194.952 148.982 189.162 143.392 183.132 144.322L152.742 146.232Z" fill="#F2B34E"/>
<path d="M167.702 187.582C164.612 183.072 161.482 178.502 157.462 174.752C153.912 171.452 149.522 168.662 144.682 167.822C142.268 167.324 139.757 167.652 137.552 168.752C137.038 164.683 137.579 160.551 139.122 156.752C139.332 156.242 138.552 155.892 138.342 156.402C136.653 160.534 136.11 165.046 136.772 169.462C136.783 169.535 136.812 169.604 136.857 169.663C136.902 169.722 136.961 169.769 137.029 169.799C137.097 169.829 137.171 169.841 137.245 169.834C137.319 169.828 137.39 169.803 137.452 169.762C141.452 167.112 146.972 168.832 150.852 170.952C155.154 173.473 158.897 176.845 161.852 180.862C163.682 183.192 165.352 185.632 167.022 188.072C167.322 188.542 168.012 188.042 167.702 187.582Z" fill="#EA8C11"/>
<path d="M198.502 153.042C198.282 152.532 197.502 152.842 197.702 153.352C199.309 157.154 200.467 161.131 201.152 165.202C191.842 166.202 184.702 173.202 179.532 180.512C177.912 182.802 176.412 185.172 174.912 187.512C174.622 187.982 175.282 188.512 175.582 188.062C180.492 180.262 185.852 171.952 194.512 167.932C196.775 166.854 199.207 166.178 201.702 165.932C201.815 165.917 201.918 165.858 201.989 165.769C202.06 165.679 202.093 165.565 202.082 165.452C201.387 161.187 200.185 157.021 198.502 153.042Z" fill="#EA8C11"/>
<path d="M110.422 259.752C105.604 248.728 98.2466 239 88.9516 231.362C88.8627 231.289 88.7486 231.254 88.6342 231.265C88.5198 231.277 88.4145 231.333 88.3416 231.422C88.2686 231.51 88.234 231.625 88.2452 231.739C88.2565 231.853 88.3127 231.959 88.4016 232.032C97.6062 239.54 104.882 249.14 109.622 260.032C109.842 260.572 110.612 260.262 110.422 259.752Z" fill="#EA8C11"/>
<path d="M272.612 193.392C272.732 192.852 271.882 192.722 271.772 193.252C269.872 202.169 269.292 211.316 270.052 220.402C270.272 223.012 270.602 225.592 271.052 228.172C271.142 228.712 272.002 228.622 271.902 228.072C270.376 219.092 270.187 209.936 271.342 200.902C271.612 198.382 272.062 195.872 272.612 193.392Z" fill="#EA8C11"/>
<path d="M182.472 297.462L177.672 232.042C176.778 219.802 175.882 207.562 174.982 195.322C174.982 194.772 174.092 194.862 174.132 195.412C175.732 217.225 177.328 239.035 178.922 260.842L183.722 326.272L186.412 362.992C186.412 363.542 187.302 363.442 187.262 362.892C185.662 341.092 184.065 319.282 182.472 297.462Z" fill="#EA8C11"/>
<path d="M116.382 215.842L115.062 206.742C115.048 206.628 114.99 206.524 114.9 206.452C114.81 206.381 114.696 206.349 114.582 206.362C114.468 206.375 114.363 206.433 114.292 206.523C114.221 206.613 114.188 206.728 114.202 206.842C115.762 217.562 117.318 228.282 118.872 239.002C119.322 242.002 119.762 245.072 120.202 248.102C120.282 248.642 121.132 248.552 121.052 248.002C119.492 237.282 117.935 226.562 116.382 215.842Z" fill="#EA8C11"/>
<path d="M117.512 246.282L112.262 226.462C112.122 225.932 111.322 226.252 111.462 226.782L116.712 246.622C116.852 247.122 117.612 246.812 117.512 246.282Z" fill="#EA8C11"/>
<path d="M245.762 184.602C245.342 192.322 244.925 200.045 244.512 207.772L244.162 214.372C244.162 214.912 244.972 215.052 245.002 214.502C245.422 206.775 245.838 199.048 246.252 191.322L246.612 184.732C246.612 184.192 245.792 184.052 245.762 184.602Z" fill="#EA8C11"/>
<path d="M188.462 155.142L170.552 191.092L148.502 157.642L149.192 149.772L150.432 135.772C152.674 138.001 155.362 139.73 158.321 140.845C161.28 141.96 164.441 142.435 167.597 142.239C170.752 142.044 173.831 141.182 176.629 139.71C179.427 138.239 181.882 136.191 183.832 133.702L188.462 155.142Z" fill="#D36D29"/>
<path d="M183.832 133.732C183.832 133.732 176.462 152.512 149.562 145.572L150.432 135.802C152.673 138.031 155.362 139.76 158.321 140.875C161.28 141.99 164.441 142.465 167.597 142.269C170.752 142.074 173.831 141.212 176.629 139.74C179.427 138.269 181.882 136.221 183.832 133.732Z" fill="#AA3617"/>
<path d="M187.042 117.172L187.302 121.252C187.613 126.373 186.025 131.428 182.842 135.452C180.22 138.758 176.659 141.193 172.627 142.437C168.596 143.681 164.281 143.676 160.253 142.422C156.224 141.168 152.669 138.723 150.056 135.411C147.443 132.098 145.893 128.072 145.612 123.862L145.372 119.772C134.122 120.482 132.372 106.842 136.542 102.772C136.681 102.637 136.828 102.51 136.982 102.392C137.102 102.292 137.242 102.212 137.352 102.132C140.612 100.012 143.142 102.412 144.032 103.452C145.359 102.269 146.298 100.713 146.726 98.9875C147.154 97.2622 147.052 95.4478 146.432 93.7817C148.23 93.5801 149.884 92.6982 151.053 91.3168C152.223 89.9354 152.82 88.159 152.722 86.3517C153.987 86.996 155.406 87.2796 156.822 87.1717C157.575 87.1218 158.316 86.96 159.022 86.6917C160.034 86.2975 160.952 85.6963 161.719 84.9265C162.485 84.1568 163.082 83.2355 163.472 82.2217C165.428 83.794 167.874 84.6293 170.384 84.5818C172.893 84.5343 175.306 83.6069 177.202 81.9617C177.383 83.8173 178.034 85.5964 179.092 87.1317C179.355 87.5369 179.649 87.9213 179.972 88.2817C181.291 89.8475 183.023 91.0117 184.972 91.6417C184.442 92.9867 184.198 94.427 184.255 95.8713C184.312 97.3157 184.668 98.7324 185.302 100.032C185.522 100.282 185.752 100.522 185.992 100.762V101.272C186.082 101.082 187.722 97.9717 190.712 98.1017C191.565 98.157 192.391 98.4177 193.122 98.8617C193.448 99.0393 193.747 99.2614 194.012 99.5217C198.342 103.522 197.972 116.462 187.042 117.172Z" fill="#D36D29"/>
<path d="M169.712 120.462C167.205 120.988 164.692 121.475 162.172 121.922C162.725 116.295 163.195 110.652 163.582 104.992C163.582 104.402 162.702 104.402 162.652 104.992C162.265 110.825 161.778 116.655 161.192 122.482C161.192 122.812 161.512 122.972 161.782 122.932C164.515 122.452 167.242 121.922 169.962 121.342C170.542 121.182 170.292 120.292 169.712 120.462Z" fill="#AA3617"/>
<path d="M152.661 123.482C154.672 123.482 156.301 121.852 156.301 119.842C156.301 117.831 154.672 116.202 152.661 116.202C150.651 116.202 149.021 117.831 149.021 119.842C149.021 121.852 150.651 123.482 152.661 123.482Z" fill="#AA3617"/>
<path d="M181.552 118.762C183.562 118.762 185.192 117.132 185.192 115.122C185.192 113.111 183.562 111.482 181.552 111.482C179.541 111.482 177.912 113.111 177.912 115.122C177.912 117.132 179.541 118.762 181.552 118.762Z" fill="#AA3617"/>
<path d="M154.659 112.908C156.082 112.675 157.002 111.064 156.714 109.309C156.427 107.554 155.041 106.32 153.618 106.553C152.196 106.786 151.276 108.398 151.563 110.153C151.85 111.908 153.237 113.141 154.659 112.908Z" fill="#36344C"/>
<path d="M174.307 110.406C175.729 110.173 176.65 108.561 176.362 106.806C176.075 105.051 174.689 103.817 173.266 104.05C171.844 104.283 170.923 105.895 171.211 107.65C171.498 109.405 172.884 110.639 174.307 110.406Z" fill="#36344C"/>
<path d="M155.682 101.932C155.433 101.519 155.036 101.218 154.572 101.092L154.072 101.022C153.744 101.028 153.424 101.117 153.142 101.282L149.242 103.022C148.929 103.209 148.678 103.483 148.52 103.812C148.361 104.14 148.303 104.508 148.352 104.869C148.401 105.23 148.555 105.568 148.795 105.843C149.035 106.117 149.35 106.315 149.702 106.412L150.202 106.472C150.529 106.474 150.85 106.388 151.132 106.222L155.032 104.472C155.451 104.229 155.756 103.83 155.882 103.362C156.007 102.877 155.935 102.363 155.682 101.932Z" fill="#36344C"/>
<path d="M169.201 99.7217C169.303 99.2467 169.587 98.8303 169.991 98.5617L170.431 98.3517C170.752 98.2369 171.099 98.2161 171.431 98.2917L175.681 98.7017C176.038 98.7783 176.364 98.958 176.619 99.2185C176.875 99.4791 177.048 99.8088 177.117 100.167C177.186 100.525 177.149 100.895 177.009 101.232C176.869 101.569 176.634 101.858 176.331 102.062L175.881 102.282C175.559 102.388 175.213 102.406 174.881 102.332L170.631 101.922C170.159 101.821 169.743 101.542 169.471 101.142C169.201 100.721 169.104 100.212 169.201 99.7217Z" fill="#36344C"/>
<path d="M197.271 94.2117C196.649 96.2118 195.555 98.0329 194.081 99.5217C193.817 99.2615 193.517 99.0394 193.191 98.8617C192.461 98.4178 191.634 98.157 190.781 98.1017C187.781 97.9717 186.151 101.102 186.061 101.272V100.762C185.821 100.522 185.591 100.282 185.371 100.032C184.421 98.0736 184.1 95.8696 184.451 93.7217C182.665 93.9704 180.846 93.6187 179.281 92.7217C177.604 91.7668 176.308 90.262 175.611 88.4617C174.626 89.0184 173.549 89.3943 172.431 89.5717C171.144 89.7427 169.836 89.6538 168.584 89.3103C167.332 88.9667 166.161 88.3756 165.141 87.5717C164.469 88.1765 163.723 88.694 162.921 89.1117C160.542 90.2716 157.811 90.4826 155.281 89.7017C154.831 90.9852 154.092 92.1484 153.121 93.1017C151.445 94.7337 149.229 95.6943 146.891 95.8017C147.014 96.8034 146.959 97.8187 146.731 98.8017C146.336 100.602 145.385 102.232 144.011 103.462C143.121 102.462 140.591 100.022 137.331 102.142C137.221 102.222 137.081 102.302 136.961 102.402C136.808 102.52 136.661 102.647 136.521 102.782C135.94 102.299 135.485 101.682 135.197 100.983C134.91 100.284 134.798 99.5247 134.872 98.7725C134.946 98.0203 135.204 97.2978 135.622 96.6682C136.04 96.0387 136.607 95.5214 137.271 95.1617C136.543 94.4576 136.017 93.5708 135.748 92.594C135.479 91.6171 135.478 90.5861 135.743 89.6084C136.009 88.6307 136.532 87.7422 137.258 87.0357C137.984 86.3292 138.887 85.8305 139.871 85.5917C139.061 84.5814 138.608 83.3316 138.582 82.0369C138.556 80.7422 138.959 79.4753 139.729 78.4334C140.498 77.3916 141.59 76.6333 142.835 76.2767C144.08 75.9201 145.407 75.9851 146.611 76.4617C146.226 75.1524 146.298 73.7507 146.817 72.488C147.335 71.2253 148.268 70.1771 149.463 69.5164C150.657 68.8557 152.041 68.622 153.386 68.8539C154.731 69.0857 155.957 69.7693 156.861 70.7917C157.046 69.4042 157.659 68.1089 158.616 67.0868C159.572 66.0646 160.824 65.3666 162.196 65.0902C163.568 64.8138 164.992 64.9727 166.27 65.5449C167.547 66.1171 168.614 67.0739 169.321 68.2817C169.855 67.1626 170.717 66.2333 171.794 65.6183C172.87 65.0033 174.109 64.732 175.344 64.8408C176.579 64.9496 177.751 65.4333 178.703 66.2271C179.655 67.0208 180.342 68.0866 180.671 69.2817C182.571 67.7017 185.671 68.2817 187.391 69.9917C189.061 71.8455 189.978 74.2567 189.961 76.7517C190.85 76.4038 191.824 76.3381 192.75 76.5636C193.677 76.789 194.512 77.2947 195.141 78.0117C195.75 78.7404 196.2 79.5883 196.462 80.501C196.724 81.4138 196.792 82.3711 196.661 83.3117C196.39 85.197 195.707 86.9995 194.661 88.5917C196.821 89.2717 197.761 91.9917 197.271 94.2117Z" fill="#36344C"/>
<path d="M177.662 129.072C176.864 130.137 175.79 130.962 174.556 131.46C173.321 131.957 171.975 132.106 170.662 131.892C168.362 131.532 165.002 129.522 165.882 126.712C166.13 126.101 166.519 125.558 167.018 125.127C167.517 124.695 168.111 124.389 168.752 124.232C169.897 123.872 171.126 123.872 172.272 124.232C172.56 123.151 173.192 122.193 174.072 121.502C174.616 121.081 175.289 120.86 175.978 120.876C176.666 120.893 177.328 121.145 177.852 121.592C179.982 123.542 179.152 127.062 177.662 129.072Z" fill="#F4E9DC"/>
<path d="M41.0216 202.252C41.0216 202.252 59.7616 294.662 80.6116 290.002C101.462 285.342 103.422 275.002 99.9316 266.462C96.4416 257.922 61.9916 192.942 61.9916 192.942C61.9916 192.942 61.9916 180.082 58.5016 169.432C55.0116 158.782 56.4016 144.882 54.8916 143.192C53.3816 141.502 46.9816 139.192 47.8916 162.682C47.8916 162.682 21.5016 132.312 17.4516 136.552C13.4016 140.792 32.3516 162.042 32.3516 162.042C32.3516 162.042 6.9516 141.562 4.5416 145.112C2.1316 148.662 23.9116 167.512 23.9116 167.512C23.9116 167.512 5.7916 152.592 3.1416 155.462C0.491595 158.332 21.7616 175.462 21.7616 175.462C21.7616 175.462 0.061596 172.692 0.00159604 176.462C-0.058404 180.232 20.4816 182.812 20.4816 182.812C20.4816 182.812 29.4616 197.832 41.0216 202.252Z" fill="#D36D29"/>
<path d="M38.7817 161.462C37.3017 162.332 35.8817 163.282 34.4717 164.272C34.4653 164.215 34.4408 164.163 34.4017 164.122L31.9617 161.322C31.8954 161.232 31.796 161.171 31.6853 161.154C31.5747 161.138 31.4619 161.165 31.3717 161.232C31.2815 161.298 31.2214 161.397 31.2045 161.508C31.1876 161.619 31.2154 161.732 31.2817 161.822L33.7217 164.612C33.7579 164.653 33.8021 164.687 33.8517 164.712C31.4152 166.475 29.0969 168.395 26.9117 170.462L22.8417 166.082C22.8113 166.033 22.7711 165.991 22.7238 165.958C22.6764 165.926 22.6229 165.903 22.5665 165.892C22.51 165.881 22.4519 165.881 22.3958 165.894C22.3396 165.906 22.2865 165.93 22.2399 165.963C22.1932 165.997 22.154 166.04 22.1246 166.089C22.0951 166.139 22.0762 166.194 22.0689 166.251C22.0615 166.308 22.066 166.366 22.082 166.421C22.0979 166.476 22.1251 166.527 22.1617 166.572L26.2517 170.982L26.3217 171.032C25.6317 171.692 24.9617 172.362 24.3217 173.032C23.9417 173.422 24.6017 173.942 24.9617 173.562C29.1849 169.123 34.0043 165.293 39.2817 162.182C39.7417 161.912 39.2417 161.232 38.7817 161.462Z" fill="#AA3617"/>
<path d="M43.8916 172.632C42.5331 176.722 41.7916 180.993 41.6917 185.302C41.6917 185.842 42.5116 185.742 42.5216 185.212C42.6099 181.054 43.3142 176.933 44.6116 172.982C44.8216 172.462 44.0616 172.122 43.8916 172.632Z" fill="#AA3617"/>
<path d="M57.3916 196.722C54.055 197.813 50.7888 199.109 47.6116 200.602C47.1216 200.832 47.4216 201.602 47.9116 201.382C51.0879 199.875 54.3541 198.566 57.6916 197.462C58.2016 197.332 57.9016 196.552 57.3916 196.722Z" fill="#AA3617"/>
<path d="M308.802 140.292C308.802 140.292 321.082 233.782 299.872 236.142C278.662 238.502 273.442 229.402 273.952 220.142C274.462 210.882 285.952 138.282 285.952 138.282C285.952 138.282 281.772 126.122 281.622 114.912C281.472 103.702 275.622 91.0117 276.512 88.9117C277.402 86.8117 282.702 82.5717 289.442 105.082C289.442 105.082 304.542 67.7817 309.742 70.4917C314.942 73.2017 303.942 99.4617 303.942 99.4617C303.942 99.4617 321.312 71.8417 324.752 74.4117C328.192 76.9817 313.702 101.892 313.702 101.892C313.702 101.892 325.992 81.8917 329.412 83.7017C332.832 85.5117 318.282 108.622 318.282 108.622C318.282 108.622 337.912 98.9617 339.212 102.552C340.512 106.142 321.892 115.202 321.892 115.202C321.892 115.202 318.292 132.362 308.802 140.292Z" fill="#D36D29"/>
<path d="M297.682 101.032C299.362 101.372 301.022 101.812 302.682 102.282C302.667 102.229 302.667 102.174 302.682 102.122L304.082 98.6818C304.116 98.5775 304.189 98.4904 304.286 98.4384C304.383 98.3863 304.496 98.3732 304.602 98.4018C304.707 98.4384 304.794 98.5134 304.846 98.6117C304.898 98.71 304.911 98.8244 304.882 98.9318L303.482 102.362C303.461 102.412 303.434 102.459 303.402 102.502C306.269 103.354 309.075 104.4 311.802 105.632L314.232 100.162C314.266 100.058 314.339 99.9704 314.436 99.9184C314.533 99.8663 314.646 99.8532 314.752 99.8818C314.857 99.9141 314.946 99.9869 314.998 100.084C315.051 100.182 315.063 100.296 315.032 100.402L312.592 105.902C312.593 105.925 312.593 105.948 312.592 105.972C313.452 106.372 314.302 106.792 315.142 107.222C315.622 107.472 315.142 108.222 314.702 107.942C309.269 105.116 303.471 103.059 297.472 101.832C296.912 101.722 297.162 100.922 297.682 101.032Z" fill="#AA3617"/>
<path d="M296.462 113.212C299.085 116.634 301.175 120.434 302.662 124.482C302.842 124.992 302.032 125.172 301.842 124.672C300.398 120.765 298.376 117.097 295.842 113.792C295.532 113.362 296.142 112.782 296.462 113.212Z" fill="#AA3617"/>
<path d="M291.522 140.382C295.025 140.333 298.528 140.5 302.012 140.882C302.542 140.942 302.512 141.772 302.012 141.712C298.528 141.34 295.025 141.173 291.522 141.212C290.952 141.222 290.982 140.382 291.522 140.382Z" fill="#AA3617"/>
<path d="M380.452 125.052C378.774 126.991 376.597 128.433 374.156 129.219C371.715 130.006 369.106 130.107 366.612 129.512C361.402 128.132 357.452 124.182 352.722 121.832C350.212 120.582 347.492 119.582 345.542 117.492C345.294 117.237 345.066 116.963 344.862 116.672C344.631 116.383 344.42 116.079 344.232 115.762C341.412 110.822 344.292 104.602 347.362 100.482C348.989 98.2383 351.045 96.3393 353.41 94.8941C355.775 93.449 358.403 92.4864 361.142 92.0617C363.74 91.7747 366.369 92.0166 368.872 92.7727C371.374 93.5289 373.697 94.7838 375.702 96.4617C379.978 99.8503 382.952 104.612 384.122 109.942C384.704 112.573 384.676 115.303 384.04 117.923C383.404 120.542 382.176 122.981 380.452 125.052Z" fill="#AF3737"/>
<path d="M388.112 142.242C388.112 160.892 375.682 172.032 359.882 172.032C344.082 172.032 330.882 160.892 330.882 142.242C330.882 123.592 343.692 112.562 359.502 112.562C375.312 112.562 388.112 123.592 388.112 142.242Z" fill="#AF3737"/>
<path d="M248.692 83.9517C248.182 87.9517 246.962 91.8317 246.202 95.8017C245.202 101.282 244.982 106.912 244.002 112.412C243.062 117.672 241.262 122.982 237.662 126.902C237.662 128.252 237.742 129.592 237.792 130.902L217.072 125.772C217.232 123.645 217.385 121.515 217.532 119.382C214.602 113.072 213.532 106.042 211.362 99.3817C208.892 91.7617 205.002 84.6117 203.112 76.8217C202.967 76.3358 202.919 75.8261 202.972 75.3217C203.003 75.0686 203.103 74.829 203.262 74.6296C203.421 74.4301 203.632 74.2786 203.872 74.1917C204.652 73.9917 205.332 74.7217 205.802 75.3817C208.629 79.3932 211.121 83.6309 213.252 88.0517C211.297 81.172 209.879 74.1509 209.012 67.0517C208.77 65.57 208.743 64.0612 208.932 62.5717C209.022 61.9717 209.282 61.2917 209.872 61.1317C210.155 61.1109 210.438 61.1657 210.693 61.2904C210.948 61.4152 211.165 61.6055 211.322 61.8417C212.25 63.0359 212.949 64.3923 213.382 65.8417C216.042 72.9717 218.182 80.2817 220.302 87.5917H220.472C218.712 78.4617 216.932 69.2517 216.612 59.9817C216.562 59.4476 216.609 58.9089 216.752 58.3917C216.835 58.1383 216.984 57.9118 217.185 57.7359C217.385 57.56 217.63 57.4411 217.892 57.3917C218.592 57.3017 219.192 57.8917 219.612 58.4617C221.007 60.5614 222.023 62.8902 222.612 65.3417C224.162 70.6317 225.332 76.0117 226.372 81.4217C226.002 75.7317 225.652 70.0617 225.502 64.3617C225.352 62.4989 225.528 60.6242 226.022 58.8217C226.272 58.0717 226.852 57.2417 227.622 57.3617C228.232 57.4517 228.622 58.0617 228.842 58.6217C232.022 65.6217 232.542 73.3817 233.752 80.9317C234.548 85.9765 235.674 90.9638 237.122 95.8617C238.502 90.945 240.74 86.3106 243.732 82.1717C244.154 81.528 244.69 80.9657 245.312 80.5117C245.624 80.2901 245.987 80.1487 246.367 80.0999C246.747 80.051 247.133 80.0963 247.492 80.2317C248.762 80.7917 248.872 82.5517 248.692 83.9517Z" fill="#F99958"/>
<path d="M230.082 81.3617C229.082 81.7817 228.082 82.2417 227.082 82.7317C226.972 81.9617 226.862 81.1817 226.762 80.4117C226.761 80.3489 226.747 80.2869 226.721 80.2298C226.694 80.1727 226.657 80.1217 226.609 80.0801C226.562 80.0385 226.507 80.0073 226.447 79.9884C226.387 79.9695 226.324 79.9633 226.261 79.9703C226.199 79.9774 226.139 79.9974 226.084 80.0291C226.03 80.0608 225.983 80.1036 225.947 80.1546C225.91 80.2056 225.884 80.2637 225.871 80.3252C225.858 80.3867 225.858 80.4502 225.872 80.5117C225.992 81.3317 226.102 82.1617 226.212 82.9917C226.207 83.0416 226.207 83.0918 226.212 83.1417C222.683 84.9745 219.408 87.2605 216.472 89.9417C216.052 90.3217 216.572 91.0517 216.992 90.6617C220.921 87.076 225.45 84.209 230.372 82.1917C230.932 81.9717 230.612 81.1417 230.082 81.3617Z" fill="#D36D29"/>
<path d="M213.722 87.5117C213.65 87.4169 213.544 87.3534 213.427 87.3348C213.309 87.3161 213.189 87.3437 213.092 87.4117C213 87.4863 212.94 87.5925 212.924 87.7092C212.907 87.8259 212.935 87.9446 213.002 88.0417C213.021 88.0838 213.045 88.124 213.072 88.1617C213.072 88.2317 213.142 88.3117 213.182 88.3917C213.249 88.541 213.305 88.6947 213.352 88.8517L213.412 89.0717V89.1417C213.412 89.1417 213.412 89.2117 213.412 89.2517C213.442 89.4237 213.462 89.5973 213.472 89.7717C213.489 89.8885 213.551 89.9941 213.644 90.0666C213.737 90.1392 213.854 90.1733 213.972 90.1617C214.086 90.1444 214.19 90.0842 214.263 89.9933C214.335 89.9025 214.37 89.7876 214.362 89.6717C214.318 88.9119 214.099 88.1724 213.722 87.5117Z" fill="#D36D29"/>
<path d="M232.132 105.762C229.192 101.707 225.448 98.3021 221.132 95.7617C220.632 95.4717 220.272 96.2817 220.762 96.5717C224.924 99.0384 228.532 102.337 231.362 106.262C231.428 106.364 231.532 106.435 231.651 106.461C231.77 106.486 231.894 106.463 231.997 106.397C232.099 106.33 232.17 106.226 232.196 106.107C232.221 105.988 232.198 105.864 232.132 105.762Z" fill="#D36D29"/>
<path d="M449.222 429.942C449.222 430.942 449.222 431.942 449.162 432.942C449.231 433.818 449.01 434.693 448.532 435.432C448.324 435.71 448.038 435.919 447.71 436.033C447.382 436.147 447.027 436.161 446.692 436.072C446.387 435.949 446.112 435.764 445.885 435.528C445.657 435.292 445.482 435.01 445.372 434.702C445.012 433.812 444.711 432.9 444.472 431.972C444.162 430.972 443.882 429.972 443.612 428.972C443.342 427.972 443.142 427.142 442.922 426.222C442.802 428.092 442.652 429.972 442.372 431.832C442.022 434.409 441.35 436.932 440.372 439.342C440.012 440.212 439.542 441.292 438.542 441.572C438.144 441.679 437.72 441.637 437.351 441.453C436.982 441.268 436.694 440.955 436.542 440.572C436.169 439.636 436.032 438.623 436.142 437.622C436.142 436.142 436.202 434.622 436.222 433.172L436.282 429.792C436.132 430.442 435.962 431.082 435.792 431.712C435.266 433.686 434.618 435.627 433.852 437.522C433.292 438.892 431.852 440.622 430.212 439.692C429.915 439.5 429.665 439.244 429.48 438.943C429.294 438.642 429.179 438.303 429.142 437.952C428.99 436.939 428.933 435.915 428.972 434.892C428.977 433.555 429.054 432.22 429.202 430.892C428.682 431.792 428.132 432.682 427.532 433.532C427.146 434.231 426.566 434.804 425.862 435.182C425.567 435.302 425.239 435.314 424.936 435.217C424.632 435.121 424.373 434.92 424.202 434.652C423.958 434.17 423.874 433.624 423.962 433.092C424.042 432.272 424.292 431.462 424.452 430.662C424.842 428.842 425.222 427.032 425.602 425.212C425.982 423.392 426.392 421.512 426.782 419.652C427.231 417.885 427.565 416.091 427.782 414.282C427.871 412.642 427.685 411 427.232 409.422C426.622 408.422 426.032 407.342 425.512 406.252C423.112 401.152 422.102 395.152 424.082 389.752C425.334 386.253 427.903 383.383 431.242 381.752C431.482 381.592 431.712 381.432 431.952 381.302C433.372 380.477 435.019 380.126 436.652 380.302C438.258 380.531 439.739 381.3 440.852 382.482C443.462 385.152 444.112 388.972 444.852 392.482C445.702 396.612 446.492 400.752 447.152 404.922C448.526 413.191 449.219 421.559 449.222 429.942Z" fill="#F99958"/>
<path d="M435.992 410.212C435.802 414.442 435.642 418.802 434.372 422.872C434.112 423.702 433.602 424.952 432.532 424.872C431.632 424.792 431.352 423.602 431.182 422.872C430.79 420.747 430.533 418.599 430.412 416.442C430.263 414.298 429.674 412.208 428.682 410.302C428.402 409.812 427.682 410.302 427.962 410.832C428.97 412.862 429.529 415.086 429.602 417.352C429.802 419.562 429.812 421.962 430.602 424.062C430.706 424.434 430.898 424.775 431.16 425.059C431.423 425.342 431.749 425.559 432.112 425.692C432.547 425.785 432.999 425.748 433.413 425.587C433.828 425.425 434.185 425.145 434.442 424.782C435.003 423.902 435.384 422.92 435.562 421.892C435.848 420.731 436.075 419.556 436.242 418.372C436.622 415.722 436.742 413.042 436.862 410.372C436.902 409.792 436.022 409.642 435.992 410.212Z" fill="#D36D29"/>
<path d="M430.011 425.902C429.741 427.512 429.481 429.122 429.211 430.722C429.21 430.83 429.247 430.936 429.317 431.019C429.386 431.102 429.484 431.157 429.591 431.174C429.698 431.191 429.807 431.169 429.899 431.111C429.991 431.054 430.06 430.965 430.091 430.862C430.361 429.262 430.621 427.652 430.891 426.042C430.893 425.933 430.856 425.828 430.786 425.745C430.717 425.662 430.619 425.607 430.512 425.59C430.405 425.573 430.296 425.595 430.204 425.652C430.112 425.71 430.043 425.798 430.011 425.902Z" fill="#D36D29"/>
<path d="M436.312 422.112L435.892 429.672C435.892 430.242 436.742 430.392 436.772 429.812L437.192 422.252C437.222 421.692 436.342 421.542 436.312 422.112Z" fill="#D36D29"/>
<path d="M442.441 415.132C442.321 414.572 441.441 414.672 441.551 415.232C442.333 419.066 442.739 422.968 442.761 426.882C442.761 427.452 443.651 427.352 443.651 426.782C443.624 422.868 443.218 418.967 442.441 415.132Z" fill="#D36D29"/>
<path d="M352.142 331.662L290.932 328.662C290.932 328.662 269.612 327.692 267.142 469.462H324.612L342.412 390.152L352.112 469.462H404.422C404.422 469.462 417.332 344.052 386.612 331.162L352.142 331.662Z" fill="#36344C"/>
<path d="M391.932 336.372C330.212 354.372 298.242 332.652 298.242 332.652L307.292 280.852L314.982 206.242L379.172 209.242L386.612 294.242C386.042 294.282 391.932 336.372 391.932 336.372Z" fill="#F4E9DC"/>
<path d="M366.272 257.682C366.197 261.108 365.926 264.527 365.462 267.922C365.032 271.322 364.582 274.712 364.042 278.092C363.042 284.632 361.582 291.412 358.432 297.292C357.212 299.562 355.432 301.862 352.802 302.422C349.882 303.042 347.252 301.122 345.282 299.222C342.722 296.732 340.342 294.042 337.882 291.452C335.582 289.156 333.4 286.746 331.342 284.232C329.434 281.924 328.095 279.201 327.432 276.282C326.925 273.16 327.342 269.959 328.632 267.072C329.926 264.108 331.578 261.314 333.552 258.752C335.373 256.234 337.354 253.836 339.482 251.572C340.242 250.772 341.022 250.002 341.822 249.232C343.152 247.832 344.552 246.462 346.022 245.232C348.311 243.138 350.818 241.298 353.502 239.742C354.806 238.952 356.319 238.576 357.842 238.662C359.116 238.816 360.31 239.369 361.252 240.242C363.382 242.162 364.442 245.002 365.152 247.702C365.959 250.965 366.336 254.32 366.272 257.682Z" fill="#F2B34E"/>
<path d="M371.462 286.882C372.702 295.622 362.862 299.592 356.002 295.882C348.702 288.602 345.942 258.512 363.292 265.382C371.042 269.352 371.942 279.142 371.462 286.882Z" fill="#D36D29"/>
<path d="M334.612 258.402C330.676 260.534 326.142 261.289 321.728 260.548C317.314 259.807 313.275 257.612 310.252 254.312C309.872 253.892 309.152 254.412 309.532 254.832C312.674 258.284 316.877 260.591 321.477 261.388C326.077 262.184 330.811 261.426 334.932 259.232C335.412 258.962 335.092 258.132 334.612 258.402Z" fill="#E2CAB0"/>
<path d="M385.382 261.462C381.108 263.98 376.153 265.097 371.212 264.656C366.271 264.215 361.592 262.238 357.832 259.002C357.392 258.622 356.832 259.322 357.262 259.692C360.299 262.282 363.917 264.101 367.808 264.994C371.699 265.887 375.748 265.828 379.612 264.822C381.832 264.238 383.959 263.346 385.932 262.172C386.392 261.882 385.872 261.162 385.382 261.462Z" fill="#E2CAB0"/>
<path d="M378.912 161.162L378.682 165.072C378.594 166.535 378.342 167.984 377.932 169.392C376.632 173.88 373.802 177.772 369.932 180.392C365.997 183.096 361.222 184.297 356.476 183.778C351.73 183.259 347.328 181.053 344.072 177.562C342.196 175.585 340.744 173.245 339.805 170.686C338.866 168.127 338.46 165.403 338.612 162.682L338.842 158.792C327.672 158.122 327.962 144.022 332.892 141.192C336.692 139.022 339.012 142.272 339.602 143.252C342.3 143.141 344.981 142.756 347.602 142.102C353.732 140.765 359.41 137.86 364.082 133.672C364.95 132.862 365.765 131.997 366.522 131.082C367.733 129.62 368.791 128.038 369.682 126.362C372.16 128.281 374.279 130.624 375.942 133.282C377.1 135.064 378.017 136.99 378.672 139.012C379.403 141.224 379.8 143.533 379.852 145.862C380.132 145.452 383.022 141.522 386.932 144.422C387.509 144.866 387.98 145.433 388.312 146.082C388.541 146.507 388.732 146.952 388.882 147.412C390.612 152.702 387.912 161.692 378.912 161.162Z" fill="#F99958"/>
<path d="M395.822 201.132C394.909 203.207 393.755 205.168 392.382 206.972C375.512 230.072 341.522 231.642 322.052 210.682C317.292 205.552 313.292 200.682 311.262 197.082C320.052 195.282 341.472 191.082 341.472 191.082L341.872 189.022L343.152 182.252L344.052 177.562C347.3 181.066 351.699 183.287 356.448 183.819C361.196 184.351 365.978 183.16 369.922 180.462L370.282 185.802L370.742 192.232C372.232 192.392 395.822 201.042 395.822 201.132Z" fill="#F99958"/>
<path d="M360.862 162.842C358.522 162.842 356.182 162.742 353.862 162.632C355.482 157.725 357.035 152.788 358.522 147.822C358.682 147.292 357.852 147.112 357.692 147.632C356.158 152.765 354.552 157.868 352.872 162.942C352.782 163.232 353.062 163.442 353.312 163.462C355.838 163.582 358.375 163.658 360.922 163.692C361.452 163.692 361.402 162.842 360.862 162.842Z" fill="#D36D29"/>
<path d="M345.762 162.232C347.601 162.232 349.092 160.741 349.092 158.902C349.092 157.063 347.601 155.572 345.762 155.572C343.923 155.572 342.432 157.063 342.432 158.902C342.432 160.741 343.923 162.232 345.762 162.232Z" fill="#D36D29"/>
<path d="M372.482 163.822C374.321 163.822 375.812 162.331 375.812 160.492C375.812 158.653 374.321 157.162 372.482 157.162C370.642 157.162 369.152 158.653 369.152 160.492C369.152 162.331 370.642 163.822 372.482 163.822Z" fill="#D36D29"/>
<path d="M351.48 150.315C351.577 148.688 350.587 147.306 349.269 147.228C347.952 147.15 346.805 148.405 346.708 150.031C346.612 151.658 347.602 153.04 348.919 153.118C350.237 153.196 351.383 151.941 351.48 150.315Z" fill="#36344C"/>
<path d="M369.496 152.038C369.592 150.412 368.602 149.03 367.285 148.952C365.967 148.874 364.821 150.129 364.724 151.755C364.627 153.381 365.617 154.763 366.935 154.841C368.253 154.92 369.399 153.665 369.496 152.038Z" fill="#36344C"/>
<path d="M352.062 143.542C351.931 143.113 351.636 142.754 351.242 142.542L350.812 142.382C350.523 142.307 350.22 142.307 349.932 142.382L346.102 143.152C345.672 143.286 345.313 143.584 345.102 143.982C344.896 144.387 344.857 144.857 344.992 145.292C345.125 145.718 345.419 146.077 345.812 146.292L346.242 146.442C346.53 146.522 346.834 146.522 347.122 146.442L350.952 145.672C351.378 145.538 351.737 145.244 351.952 144.852C352.157 144.446 352.197 143.976 352.062 143.542Z" fill="#36344C"/>
<path d="M364.611 144.282C364.796 143.881 365.13 143.569 365.541 143.412L365.981 143.302C366.283 143.27 366.587 143.322 366.861 143.452L370.562 144.672C370.964 144.856 371.28 145.189 371.441 145.602C371.612 146.025 371.612 146.498 371.441 146.922C371.25 147.321 370.914 147.632 370.502 147.792L370.062 147.892C369.764 147.921 369.464 147.873 369.191 147.752L365.481 146.532C365.079 146.347 364.763 146.014 364.601 145.602C364.43 145.178 364.434 144.703 364.611 144.282Z" fill="#36344C"/>
<path d="M369.922 180.462C369.922 180.462 365.562 192.932 341.922 189.092L343.212 182.322L344.102 177.632C347.356 181.112 351.75 183.311 356.487 183.831C361.224 184.35 365.99 183.155 369.922 180.462Z" fill="#D36D29"/>
<path d="M366.972 165.152C366.129 166.333 365.022 167.3 363.739 167.977C362.456 168.654 361.032 169.022 359.582 169.052C359.012 169.052 359.112 169.952 359.682 169.942C361.25 169.902 362.788 169.501 364.176 168.769C365.564 168.037 366.764 166.994 367.682 165.722C367.992 165.252 367.302 164.692 366.972 165.152Z" fill="#36344C"/>
<path d="M342.442 186.142L341.442 191.142L332.682 192.872L302.402 393.372C266.162 390.772 250.782 369.082 250.782 369.082L265.162 251.612C265.162 251.612 209.232 209.722 203.522 191.212C197.812 172.702 212.612 120.462 212.612 120.462L217.062 121.572L237.782 126.692L240.612 127.462V170.252L316.462 189.462C324.636 185.929 333.642 184.778 342.442 186.142Z" fill="#6BB2AB"/>
<path d="M370.282 185.782C373.945 185.858 377.548 186.73 380.841 188.338C384.134 189.946 387.038 192.25 389.352 195.092C389.352 195.092 411.882 200.092 416.102 214.922C420.322 229.752 443.102 379.002 443.102 379.002C443.102 379.002 440.872 394.492 422.532 396.342L412.122 380.732L412.622 387.922C412.622 387.922 398.982 401.672 382.622 399.572L370.732 192.212L370.282 185.782Z" fill="#6BB2AB"/>
<path d="M316.982 233.622C316.167 224.823 315.796 215.988 315.872 207.152C315.912 202.118 316.098 197.095 316.432 192.082C316.432 191.512 315.592 191.372 315.552 191.942C314.372 209.696 314.995 227.524 317.412 245.152C318.078 250.105 318.898 255.035 319.872 259.942C319.982 260.502 320.872 260.402 320.762 259.842C319.063 251.171 317.801 242.42 316.982 233.622Z" fill="#389688"/>
<path d="M389.992 196.962C388.437 213.085 385.213 229.004 380.372 244.462C379.002 248.812 377.512 253.132 375.892 257.392C375.692 257.932 376.502 258.302 376.712 257.762C382.462 242.582 386.627 226.848 389.142 210.812C389.852 206.272 390.432 201.702 390.872 197.132C390.932 196.532 390.052 196.392 389.992 196.962Z" fill="#389688"/>
<path d="M262.982 220.222C262.692 217.532 262.412 214.842 262.162 212.142C262.138 212.033 262.075 211.936 261.984 211.871C261.894 211.805 261.782 211.776 261.671 211.789C261.56 211.801 261.458 211.854 261.384 211.938C261.31 212.022 261.27 212.13 261.272 212.242C262.158 221.782 263.348 231.288 264.842 240.762C265.262 243.428 265.705 246.095 266.172 248.762C266.272 249.322 267.172 249.222 267.062 248.662C265.428 239.195 264.068 229.715 262.982 220.222Z" fill="#389688"/>
<path d="M263.052 242.342C260.532 235.008 258.008 227.675 255.482 220.342C255.292 219.802 254.482 220.122 254.642 220.662C257.175 227.995 259.702 235.328 262.222 242.662C262.412 243.212 263.242 242.882 263.052 242.342Z" fill="#389688"/>
<path d="M409.062 331.322C408.102 316.435 406.988 301.562 405.722 286.702C404.982 278.282 404.212 269.868 403.412 261.462C403.388 261.353 403.325 261.256 403.234 261.191C403.144 261.126 403.032 261.096 402.921 261.109C402.81 261.121 402.708 261.175 402.634 261.258C402.56 261.342 402.52 261.45 402.522 261.562C403.982 276.468 405.282 291.402 406.422 306.362C407.562 321.322 408.535 336.202 409.342 351.002C409.808 359.442 410.222 367.878 410.582 376.312C410.582 376.892 411.492 376.792 411.472 376.212C410.825 361.252 410.022 346.288 409.062 331.322Z" fill="#389688"/>
<path d="M300.512 332.882C293.982 347.012 283.301 358.816 269.892 366.722C269.392 367.022 269.892 367.722 270.412 367.452C283.94 359.441 294.721 347.517 301.332 333.252C301.377 333.144 301.378 333.022 301.335 332.913C301.292 332.804 301.208 332.717 301.101 332.668C300.995 332.62 300.873 332.616 300.763 332.655C300.653 332.695 300.563 332.776 300.512 332.882Z" fill="#389688"/>
<path d="M404.612 377.342C397.492 368.928 392.16 359.153 388.942 348.612C388.033 345.634 387.302 342.606 386.752 339.542C386.652 338.982 385.752 339.072 385.862 339.642C388.389 353.745 394.599 366.931 403.862 377.862C404.302 378.302 405.032 377.782 404.612 377.342Z" fill="#389688"/>
<path d="M311.542 225.132C304.648 236.785 299.798 249.533 297.202 262.822C296.872 264.512 299.512 264.932 299.842 263.242C302.412 250.194 307.19 237.681 313.972 226.242C314.852 224.762 312.402 223.672 311.542 225.132Z" fill="#F4E9DC"/>
<path d="M389.202 235.722C388.722 234.062 386.202 235.042 386.712 236.722C390.258 248.967 391.355 261.792 389.942 274.462C389.752 276.162 392.392 276.592 392.592 274.882C394.051 261.732 392.899 248.424 389.202 235.722Z" fill="#F4E9DC"/>
<path d="M317.162 259.702C315.288 276.775 313.288 293.825 311.162 310.852C309.035 327.878 306.755 344.812 304.322 361.652C302.988 371.132 301.592 380.605 300.132 390.072C300.13 390.18 300.167 390.286 300.237 390.369C300.307 390.452 300.404 390.507 300.511 390.524C300.618 390.541 300.728 390.519 300.82 390.461C300.912 390.404 300.98 390.315 301.012 390.212C303.592 373.232 306.035 356.232 308.342 339.212C310.648 322.192 312.805 305.245 314.812 288.372C315.938 278.865 317.025 269.348 318.072 259.822C318.112 259.272 317.232 259.132 317.162 259.702Z" fill="#F4E9DC"/>
<path d="M381.792 342.462C380.638 324.642 379.898 306.802 379.572 288.942C379.378 278.882 379.325 268.818 379.412 258.752C379.412 258.182 378.532 258.282 378.522 258.852C378.382 276.712 378.658 294.565 379.352 312.412C380.045 330.258 381.148 348.082 382.662 365.882C383.508 375.882 384.508 385.882 385.662 395.882C385.675 395.998 385.734 396.105 385.826 396.178C385.918 396.251 386.035 396.285 386.152 396.272C386.268 396.258 386.375 396.199 386.448 396.107C386.521 396.016 386.555 395.898 386.542 395.782C384.535 378.055 382.952 360.282 381.792 342.462Z" fill="#F4E9DC"/>
</svg>
